<!-- Generated by IcoMoon.io -->
<svg version="1.1" xmlns="http://www.w3.org/2000/svg" width="38" height="83" viewBox="0 0 15 32">
<title>Vector</title>
<path fill="#626cc3" d="M5.328 19.087v0zM13.155 5.236v0zM14.65 0l-0.033-0.188c0.052-0.009 0.105 0.004 0.147 0.035s0.069 0.079 0.075 0.131l-0.189 0.021zM7.135 7.387v0zM5.993 2.444l-0.151-0.116c0.038-0.050 0.099-0.078 0.162-0.075s0.12 0.038 0.153 0.092l-0.163 0.098zM4.325 13.445v0zM1.935 9.001l-0.177-0.070c0.023-0.059 0.074-0.103 0.136-0.116s0.126 0.004 0.172 0.048l-0.131 0.138zM4.393 20.486v0zM0.19 17.383l-0.19 0.013c-0.004-0.063 0.022-0.124 0.072-0.163s0.115-0.051 0.175-0.032l-0.057 0.182zM5.91 26.625v0zM0.854 26.281l-0.156 0.109c-0.035-0.050-0.044-0.114-0.024-0.172s0.067-0.102 0.126-0.12l0.054 0.183zM8.359 10.446v0zM12.471 8.802l-0.003-0.19c0.059-0.001 0.115 0.026 0.151 0.072s0.050 0.106 0.037 0.163l-0.185-0.044zM7.473 16.341v0zM11.548 14.039l-0.028-0.188c0.058-0.009 0.117 0.010 0.16 0.051s0.064 0.099 0.058 0.157l-0.189-0.020zM8.697 22.404v0zM12.366 19.067l-0.069-0.177c0.056-0.022 0.118-0.016 0.169 0.015s0.084 0.084 0.090 0.144l-0.19 0.019zM5.518 19.069c0.53 5.601 3.855 10.247 8.444 12.659l-0.177 0.337c-4.699-2.471-8.104-7.228-8.646-12.961l0.379-0.036zM9.131 7.288c-2.619 3.164-4.032 7.347-3.613 11.781l-0.379 0.036c-0.429-4.538 1.018-8.821 3.699-12.060l0.293 0.243zM10.077 2.692c-0.723 0.978-1.065 1.943-1.135 2.737-0.071 0.802 0.137 1.399 0.466 1.69l-0.252 0.286c-0.456-0.403-0.67-1.144-0.594-2.009 0.077-0.873 0.449-1.903 1.208-2.93l0.306 0.226zM9.409 7.119c0.147 0.13 0.36 0.193 0.637 0.174s0.604-0.12 0.952-0.3c0.696-0.359 1.444-1.016 1.999-1.861l0.318 0.209c-0.588 0.896-1.384 1.599-2.142 1.99-0.379 0.196-0.757 0.318-1.101 0.342s-0.669-0.051-0.915-0.268l0.252-0.286zM12.996 5.131c0.87-1.325 1.236-2.607 1.385-3.557 0.074-0.475 0.094-0.866 0.095-1.137 0.001-0.136-0.003-0.241-0.007-0.312-0.002-0.035-0.004-0.062-0.005-0.080-0.001-0.009-0.001-0.015-0.002-0.019-0-0.002-0-0.003-0-0.004s-0-0.001-0-0.001 0-0 0-0 0 0 0 0 0 0 0.189-0.021 0.189-0.021 0.189-0.021 0 0 0 0 0 0 0 0.001 0 0.001 0 0.002 0 0.004 0.001 0.007 0.001 0.014 0.002 0.024c0.002 0.021 0.004 0.051 0.006 0.090 0.004 0.078 0.009 0.191 0.008 0.335-0.002 0.288-0.022 0.698-0.1 1.194-0.155 0.992-0.537 2.328-1.443 3.707l-0.318-0.209zM14.65 0c0.033 0.188 0.033 0.188 0.033 0.188s0 0-0 0-0 0-0 0-0.001 0-0.001 0-0.003 0.001-0.006 0.001-0.014 0.003-0.026 0.005c-0.023 0.004-0.057 0.011-0.102 0.021-0.089 0.019-0.219 0.049-0.38 0.090-0.322 0.084-0.766 0.216-1.255 0.409-0.984 0.389-2.126 1.017-2.836 1.977l-0.306-0.226c0.773-1.045 1.994-1.706 3.002-2.105 0.507-0.2 0.966-0.337 1.299-0.424 0.167-0.043 0.302-0.074 0.396-0.094 0.047-0.010 0.084-0.017 0.109-0.022 0.013-0.002 0.022-0.004 0.029-0.006 0.003-0.001 0.006-0.001 0.008-0.001s0.002-0 0.002-0 0-0 0.001-0 0-0 0-0 0-0 0.033 0.188zM4.39 7.235c0.038 1.145 0.326 2.037 0.702 2.635 0.381 0.607 0.83 0.879 1.183 0.875l0.004 0.381c-0.546 0.006-1.097-0.396-1.51-1.053-0.418-0.665-0.72-1.625-0.76-2.825l0.381-0.013zM6.275 10.745c0.158-0.002 0.281-0.069 0.386-0.209 0.111-0.148 0.198-0.377 0.257-0.685 0.118-0.616 0.11-1.479 0.028-2.448l0.38-0.032c0.083 0.976 0.095 1.882-0.033 2.552-0.064 0.334-0.166 0.627-0.326 0.842-0.166 0.222-0.395 0.358-0.687 0.361l-0.004-0.381zM6.945 7.403c-0.148-1.755-0.431-2.977-0.675-3.757-0.122-0.39-0.234-0.669-0.314-0.849-0.040-0.090-0.073-0.155-0.095-0.197-0.011-0.021-0.019-0.036-0.025-0.046-0.003-0.005-0.005-0.008-0.006-0.010s-0.001-0.002-0.001-0.002-0-0-0-0 0 0 0 0 0 0 0 0 0 0 0.163-0.098 0.163-0.098 0.163-0.098 0 0 0 0 0 0 0 0.001 0 0.001 0.001 0.001 0.002 0.003 0.003 0.004 0.005 0.009 0.008 0.015 0.017 0.031 0.030 0.056c0.025 0.049 0.061 0.121 0.104 0.218 0.087 0.194 0.204 0.487 0.33 0.891 0.253 0.808 0.54 2.057 0.691 3.838l-0.38 0.032zM5.993 2.444c0.151 0.116 0.151 0.116 0.151 0.116s0 0 0 0-0 0-0 0-0 0.001-0.001 0.001-0.002 0.003-0.004 0.005-0.008 0.011-0.015 0.020c-0.013 0.018-0.032 0.044-0.057 0.079-0.050 0.070-0.121 0.173-0.207 0.304-0.171 0.262-0.399 0.636-0.624 1.081-0.453 0.896-0.885 2.061-0.847 3.186l-0.381 0.013c-0.041-1.22 0.424-2.454 0.888-3.37 0.233-0.461 0.468-0.847 0.645-1.118 0.089-0.136 0.163-0.243 0.215-0.316 0.026-0.037 0.047-0.065 0.061-0.084 0.007-0.010 0.013-0.017 0.017-0.022 0.002-0.003 0.003-0.005 0.004-0.006s0.001-0.001 0.001-0.002 0-0 0-0 0-0 0-0 0-0 0.151 0.115zM1.665 14.106c0.337 1.096 0.846 1.873 1.361 2.34 0.522 0.474 1.019 0.605 1.354 0.498l0.115 0.363c-0.521 0.166-1.157-0.064-1.725-0.579-0.575-0.522-1.116-1.363-1.469-2.51l0.364-0.112zM4.379 16.944c0.151-0.048 0.253-0.15 0.317-0.318 0.067-0.177 0.091-0.425 0.066-0.74-0.050-0.63-0.284-1.462-0.617-2.375l0.358-0.13c0.335 0.919 0.585 1.792 0.639 2.476 0.027 0.341 0.006 0.654-0.090 0.906-0.099 0.261-0.281 0.458-0.558 0.546l-0.115-0.363zM4.146 13.511c-0.603-1.653-1.194-2.751-1.632-3.434-0.219-0.341-0.399-0.578-0.523-0.729-0.062-0.075-0.11-0.129-0.142-0.163-0.016-0.017-0.028-0.029-0.035-0.037-0.004-0.004-0.006-0.006-0.008-0.008s-0.001-0.001-0.002-0.001-0-0-0-0 0 0 0 0 0 0 0 0 0 0 0.131-0.138 0.131-0.138 0.131-0.138 0 0 0 0 0 0 0 0 0.001 0.001 0.001 0.001 0.002 0.002 0.004 0.004 0.007 0.007 0.012 0.012 0.025 0.025 0.043 0.045c0.037 0.040 0.090 0.099 0.157 0.18 0.134 0.162 0.323 0.412 0.55 0.765 0.454 0.707 1.057 1.831 1.669 3.509l-0.358 0.13zM1.935 9.001c0.177 0.070 0.177 0.069 0.177 0.069s0 0 0 0-0 0-0 0-0 0.001-0.001 0.001-0.001 0.003-0.002 0.006-0.005 0.013-0.009 0.024c-0.008 0.021-0.019 0.052-0.034 0.093-0.029 0.082-0.070 0.202-0.118 0.354-0.095 0.304-0.214 0.732-0.313 1.228-0.197 0.999-0.304 2.252 0.028 3.329l-0.364 0.112c-0.359-1.167-0.239-2.494-0.037-3.515 0.101-0.513 0.225-0.954 0.323-1.268 0.049-0.157 0.092-0.282 0.122-0.368 0.015-0.043 0.028-0.077 0.036-0.099 0.004-0.011 0.008-0.020 0.010-0.026 0.001-0.003 0.002-0.005 0.003-0.007s0.001-0.002 0.001-0.002 0-0 0-0.001 0-0 0-0 0-0 0.177 0.069zM2.209 22.444c0.803 0.889 1.622 1.387 2.308 1.583 0.694 0.198 1.216 0.083 1.485-0.188l0.271 0.268c-0.407 0.411-1.099 0.504-1.86 0.286-0.769-0.22-1.647-0.764-2.486-1.694l0.283-0.255zM6.002 23.838c0.124-0.125 0.176-0.281 0.16-0.482-0.016-0.208-0.106-0.46-0.27-0.752-0.327-0.583-0.917-1.269-1.633-1.984l0.269-0.27c0.722 0.72 1.342 1.436 1.696 2.067 0.177 0.315 0.295 0.623 0.318 0.908 0.023 0.293-0.056 0.564-0.269 0.78l-0.271-0.268zM4.259 20.621c-1.297-1.295-2.337-2.061-3.048-2.503-0.355-0.221-0.629-0.36-0.811-0.444-0.091-0.042-0.16-0.070-0.204-0.087-0.022-0.009-0.039-0.014-0.049-0.018-0.005-0.002-0.009-0.003-0.011-0.004-0.001-0-0.002-0.001-0.002-0.001s-0-0-0-0 0 0 0 0 0 0 0 0 0 0 0.057-0.182 0.057-0.182 0.057-0.182 0 0 0 0 0 0 0.001 0 0.001 0 0.002 0.001 0.003 0.001 0.005 0.002 0.010 0.003 0.017 0.006c0.014 0.005 0.034 0.012 0.061 0.022 0.052 0.020 0.128 0.051 0.227 0.096 0.197 0.091 0.485 0.238 0.853 0.467 0.737 0.458 1.799 1.243 3.116 2.557l-0.269 0.27zM0.19 17.383c0.19-0.013 0.19-0.013 0.19-0.013s0 0 0 0 0 0 0 0 0 0.001 0 0.002 0 0.004 0.001 0.007 0.001 0.015 0.002 0.027c0.002 0.024 0.005 0.060 0.010 0.107 0.009 0.094 0.025 0.23 0.048 0.399 0.047 0.339 0.126 0.81 0.257 1.337 0.262 1.060 0.721 2.32 1.511 3.194l-0.283 0.255c-0.853-0.945-1.331-2.279-1.598-3.358-0.134-0.543-0.216-1.027-0.264-1.376-0.024-0.175-0.040-0.316-0.050-0.413-0.005-0.049-0.008-0.087-0.011-0.113-0.001-0.013-0.002-0.023-0.002-0.030-0-0.003-0-0.006-0.001-0.008s-0-0.002-0-0.002-0-0-0-0.001 0-0 0-0 0-0 0.19-0.013zM5.145 29.547c1.118 0.322 2.044 0.296 2.705 0.084 0.666-0.214 1.037-0.603 1.117-0.996l0.373 0.076c-0.118 0.576-0.632 1.044-1.374 1.282-0.747 0.24-1.753 0.258-2.927-0.081l0.106-0.366zM8.966 28.635c0.072-0.352-0.151-0.689-0.733-1.018-0.57-0.322-1.408-0.587-2.366-0.807l0.085-0.371c0.966 0.222 1.848 0.496 2.468 0.846 0.608 0.343 1.045 0.81 0.919 1.426l-0.373-0.076zM5.867 26.81c-1.735-0.398-2.984-0.482-3.794-0.468-0.405 0.007-0.701 0.038-0.893 0.068-0.096 0.015-0.166 0.029-0.212 0.039-0.023 0.005-0.039 0.009-0.049 0.012-0.005 0.001-0.009 0.002-0.011 0.003-0.001 0-0.002 0-0.002 0s-0 0-0 0 0-0 0-0 0-0 0-0 0-0-0.054-0.183-0.054-0.183-0.053-0.183 0-0 0-0 0-0 0.001-0 0.001-0 0.002-0 0.003-0.001 0.005-0.001 0.010-0.003 0.017-0.005c0.014-0.004 0.035-0.009 0.062-0.015 0.054-0.012 0.132-0.027 0.237-0.043 0.209-0.032 0.522-0.065 0.944-0.072 0.844-0.015 2.123 0.073 3.886 0.477l-0.085 0.371zM0.854 26.281c0.156-0.109 0.156-0.109 0.156-0.109s0 0 0 0 0 0 0 0 0 0.001 0.001 0.001 0.002 0.003 0.004 0.005 0.009 0.012 0.016 0.022c0.014 0.020 0.036 0.049 0.064 0.087 0.056 0.076 0.14 0.186 0.248 0.319 0.215 0.268 0.526 0.632 0.906 1.016 0.766 0.773 1.798 1.607 2.896 1.923l-0.106 0.366c-1.194-0.344-2.281-1.235-3.061-2.021-0.392-0.396-0.712-0.77-0.933-1.046-0.111-0.138-0.197-0.251-0.256-0.33-0.029-0.040-0.052-0.071-0.067-0.092-0.008-0.011-0.014-0.019-0.018-0.025-0.002-0.003-0.004-0.005-0.005-0.007s-0.001-0.001-0.001-0.002-0-0-0-0.001-0-0-0-0-0-0 0.156-0.109zM10.182 13.064c-0.874 0.609-1.727 0.863-2.437 0.855-0.705-0.008-1.29-0.277-1.579-0.741l0.324-0.201c0.198 0.319 0.638 0.555 1.259 0.562 0.617 0.007 1.393-0.215 2.215-0.787l0.218 0.313zM6.167 13.178c-0.151-0.242-0.182-0.502-0.117-0.763 0.063-0.253 0.215-0.501 0.419-0.737 0.406-0.472 1.056-0.947 1.791-1.396l0.199 0.325c-0.727 0.444-1.335 0.894-1.701 1.319-0.183 0.212-0.294 0.407-0.338 0.581-0.042 0.167-0.022 0.32 0.071 0.469l-0.324 0.201zM8.259 10.283c1.342-0.82 2.385-1.238 3.097-1.451 0.356-0.106 0.63-0.162 0.816-0.19 0.093-0.014 0.165-0.022 0.214-0.026 0.025-0.002 0.044-0.003 0.057-0.004 0.007-0 0.012-0.001 0.016-0.001 0.002-0 0.004-0 0.005-0s0.001-0 0.002-0 0-0 0.001-0 0 0 0 0 0 0 0.003 0.19 0.003 0.19 0.003 0.19 0 0 0 0 0 0 0 0 0 0 0 0-0.001 0-0.002 0-0.005 0-0.009 0c-0.009 0-0.024 0.001-0.044 0.003-0.041 0.003-0.103 0.010-0.188 0.023-0.169 0.026-0.425 0.077-0.765 0.179-0.679 0.203-1.692 0.607-3.008 1.411l-0.199-0.325zM12.471 8.802c0.185 0.044 0.185 0.044 0.185 0.044s0 0-0 0-0 0-0 0.001-0 0.001-0 0.002-0.001 0.004-0.002 0.007-0.004 0.015-0.007 0.026c-0.006 0.023-0.014 0.056-0.026 0.098-0.023 0.084-0.058 0.206-0.105 0.355-0.094 0.298-0.237 0.707-0.434 1.154-0.391 0.888-1.008 1.954-1.9 2.576l-0.218-0.313c0.804-0.56 1.386-1.546 1.769-2.416 0.19-0.432 0.328-0.827 0.419-1.115 0.045-0.144 0.079-0.26 0.101-0.341 0.011-0.040 0.019-0.071 0.024-0.092 0.003-0.010 0.005-0.018 0.006-0.023 0.001-0.003 0.001-0.004 0.001-0.006s0-0.001 0-0.001 0-0 0-0 0 0 0-0-0 0 0.185 0.044zM9.735 18.815c-0.829 0.759-1.684 1.145-2.425 1.237-0.737 0.091-1.382-0.108-1.745-0.549l0.294-0.242c0.254 0.309 0.751 0.494 1.404 0.413 0.649-0.081 1.433-0.424 2.215-1.14l0.257 0.281zM5.565 19.503c-0.189-0.23-0.257-0.495-0.225-0.774 0.031-0.272 0.155-0.55 0.335-0.825 0.358-0.55 0.972-1.138 1.679-1.711l0.24 0.296c-0.699 0.568-1.275 1.125-1.6 1.623-0.162 0.249-0.253 0.47-0.275 0.66-0.021 0.183 0.021 0.344 0.141 0.489l-0.294 0.242zM7.353 16.193c1.29-1.047 2.323-1.632 3.038-1.955 0.358-0.162 0.636-0.258 0.826-0.314 0.095-0.028 0.169-0.046 0.22-0.057 0.025-0.006 0.045-0.009 0.059-0.012 0.007-0.001 0.012-0.002 0.016-0.003 0.002-0 0.004-0.001 0.005-0.001s0.001-0 0.002-0 0-0 0.001-0 0-0 0-0 0-0 0.028 0.188 0.028 0.188 0.028 0.188 0 0 0 0 0-0 0-0 0 0-0 0-0.001 0-0.002 0-0.005 0.001-0.010 0.002c-0.010 0.002-0.025 0.005-0.046 0.009-0.042 0.009-0.107 0.025-0.194 0.051-0.174 0.051-0.435 0.141-0.777 0.296-0.683 0.309-1.688 0.875-2.955 1.903l-0.24-0.296zM11.548 14.039c0.189 0.020 0.189 0.020 0.189 0.020s0 0-0 0 0 0-0 0.001-0 0.001-0 0.002-0 0.004-0.001 0.008-0.002 0.016-0.003 0.028c-0.003 0.024-0.007 0.060-0.014 0.106-0.012 0.091-0.032 0.223-0.061 0.385-0.057 0.324-0.15 0.773-0.294 1.268-0.287 0.984-0.784 2.184-1.629 2.958l-0.257-0.281c0.766-0.701 1.24-1.818 1.521-2.784 0.14-0.479 0.23-0.913 0.285-1.227 0.028-0.157 0.046-0.284 0.058-0.371 0.006-0.044 0.010-0.077 0.013-0.1 0.001-0.011 0.002-0.020 0.003-0.025 0-0.003 0.001-0.005 0.001-0.006s0-0.001 0-0.001 0-0 0-0 0 0 0-0 0 0 0.189 0.020zM11.519 24.444c-0.684 0.979-1.472 1.576-2.206 1.843-0.73 0.265-1.429 0.208-1.891-0.166l0.24-0.296c0.325 0.263 0.87 0.34 1.521 0.104 0.646-0.235 1.375-0.775 2.024-1.703l0.312 0.218zM7.422 26.121c-0.495-0.4-0.469-1.029-0.223-1.672 0.249-0.652 0.749-1.403 1.348-2.163l0.299 0.236c-0.593 0.752-1.064 1.467-1.291 2.063-0.23 0.604-0.185 1.004 0.107 1.24l-0.24 0.296zM8.547 22.286c1.093-1.386 2.022-2.232 2.682-2.733 0.33-0.25 0.593-0.415 0.775-0.517 0.091-0.051 0.162-0.087 0.211-0.11 0.025-0.012 0.044-0.020 0.057-0.026 0.007-0.003 0.012-0.005 0.016-0.007 0.002-0.001 0.004-0.001 0.005-0.002s0.001-0 0.002-0.001 0-0 0.001-0 0-0 0-0 0-0 0.070 0.177 0.070 0.177 0.070 0.177 0-0 0-0 0-0 0-0 0 0-0 0-0.001 0-0.002 0.001-0.005 0.002-0.010 0.004c-0.009 0.004-0.025 0.011-0.045 0.021-0.041 0.020-0.104 0.051-0.188 0.098-0.167 0.094-0.415 0.248-0.731 0.488-0.632 0.48-1.538 1.303-2.613 2.666l-0.299-0.236zM12.366 19.067c0.19-0.019 0.19-0.018 0.19-0.018s0 0 0 0 0 0 0 0.001 0 0.001 0 0.002 0 0.005 0.001 0.008 0.002 0.017 0.003 0.030c0.002 0.026 0.005 0.064 0.008 0.113 0.007 0.098 0.014 0.239 0.019 0.414 0.010 0.35 0.010 0.837-0.033 1.384-0.085 1.088-0.339 2.447-1.035 3.443l-0.312-0.218c0.636-0.911 0.884-2.186 0.967-3.255 0.042-0.531 0.042-1.004 0.032-1.344-0.005-0.17-0.012-0.306-0.019-0.4-0.003-0.047-0.006-0.083-0.008-0.107-0.001-0.012-0.002-0.021-0.002-0.027-0-0.003-0.001-0.005-0.001-0.007s-0-0.001-0-0.002 0-0 0-0-0-0-0-0 0 0 0.19-0.018z"></path>
</svg>
