<svg width="90" height="71" viewBox="0 0 90 71" fill="none" xmlns="http://www.w3.org/2000/svg">
<path d="M63 55C63 63.8366 54.9411 71 45 71C35.0589 71 27 63.8366 27 55C27 46.1634 35.0589 39 45 39C54.9411 39 63 46.1634 63 55Z" fill="#FFC85E"/>
<path d="M26.3351 58.1849C23.8431 59.3443 21.0077 60 18 60C8.05887 60 0 52.8366 0 44C0 35.1634 8.05887 28 18 28C26.5077 28 33.6368 33.2466 35.5159 40.2984C29.8251 43.2436 26 48.7247 26 55C26 56.0886 26.1151 57.1532 26.3351 58.1849Z" fill="#FFC85E"/>
<path d="M63.8924 58.2889C66.3289 59.3834 69.0835 60 72 60C81.9411 60 90 52.8366 90 44C90 35.1634 81.9411 28 72 28C63.5374 28 56.4388 33.1911 54.5145 40.1864C60.3262 43.1033 64.25 48.6443 64.25 55C64.25 56.1252 64.127 57.2248 63.8924 58.2889Z" fill="#FFC85E"/>
<path d="M41.5 35H48.5M18.4229 23.7064C18.4229 10.5 30.8172 1 45 1M45 1C59.1828 1 71.5771 10.5 71.5771 23.7064M45 1L45 35M15 24H22M68 24H75" stroke="#626CC3" stroke-width="2" stroke-linecap="round" stroke-linejoin="round"/>
</svg>
