<svg width="171" height="43" viewBox="0 0 171 43" fill="none" xmlns="http://www.w3.org/2000/svg">
<path d="M54.8454 4.28785C56.426 4.13203 58.0202 4.38178 59.4774 5.01352C60.0178 5.46128 60.2031 6.55753 60.2031 8.25594H57.393C57.393 7.71554 57.3004 7.34497 57.0379 7.17513C56.3133 6.92961 55.5461 6.83503 54.7836 6.89721C53.5175 6.89721 52.7147 6.98985 52.5294 7.25233C52.2047 7.92345 52.0814 8.67423 52.1743 9.41394C52.1743 10.68 52.2669 11.3903 52.5294 11.5755C53.2394 11.88 54.0144 12.0021 54.7836 11.9307C55.5654 11.9985 56.3529 11.9093 57.0996 11.6682C57.2675 11.5265 57.3967 11.3445 57.475 11.1393C57.5533 10.934 57.5782 10.7122 57.5474 10.4947H60.1876C60.1876 12.3012 59.9097 13.382 59.462 13.7371C58.0113 14.3912 56.4111 14.6419 54.8299 14.4628C52.3132 14.4628 50.8619 14.1849 50.3369 13.6445C49.8119 13.1041 49.5186 11.6682 49.5186 9.32129C49.3617 7.84602 49.6127 6.35598 50.2443 5.01352C51.6503 4.37472 53.2017 4.12416 54.7373 4.28785" fill="#282F6C"/>
<path d="M62.8731 4.47313H65.5751V7.97802H67.011L69.9755 4.47313H73.6811L69.3579 9.2441L74.2215 14.4628H70.3461L67.011 10.5874H65.5751V14.4628H62.8731V4.47313Z" fill="#282F6C"/>
<path d="M80.1515 4.47313H84.7835L89.1067 14.4628H86.0187L85.2158 12.749H79.7964L78.9781 14.4628H75.89L80.1515 4.47313ZM82.6373 6.71194H82.1896L80.7537 10.1396H83.9961L82.6373 6.71194Z" fill="#282F6C"/>
<path d="M97.6915 4.4731C98.669 4.33752 99.6625 4.56256 100.486 5.10615C101.01 6.07043 101.285 7.15058 101.285 8.24819C101.285 9.3458 101.01 10.426 100.486 11.3902C99.6561 11.9187 98.6682 12.1425 97.6915 12.0233H93.8315V14.4628H91.0677V4.4731H97.6915ZM93.9241 9.41392H97.7841C98.0494 9.41454 98.3063 9.32159 98.5098 9.15143C98.707 8.86141 98.7996 8.51291 98.7723 8.16327C98.7884 7.81474 98.6967 7.46972 98.5098 7.17511C98.4175 7.07725 98.3043 7.00146 98.1787 6.95334C98.0531 6.90523 97.9182 6.88603 97.7841 6.89719H93.9241V9.41392Z" fill="#282F6C"/>
<path d="M103.806 14.4628V4.47313H113.703V6.89721H106.415V8.2405H111.819C112.195 8.21837 112.571 8.27113 112.926 8.39571C113.282 8.52029 113.608 8.7142 113.888 8.96618C114.377 9.61047 114.603 10.416 114.521 11.2204C114.595 12.1487 114.338 13.0732 113.795 13.8298C113.542 14.06 113.244 14.2351 112.92 14.3441C112.596 14.453 112.252 14.4935 111.912 14.4628H103.806ZM106.415 10.4947V12.0387H111.047C111.572 12.0387 111.757 11.7763 111.757 11.3285C111.772 11.217 111.765 11.1036 111.736 10.9949C111.707 10.8863 111.656 10.7845 111.588 10.6955C111.4 10.572 111.179 10.5074 110.954 10.5102L106.415 10.4947Z" fill="#282F6C"/>
<path d="M131.335 4.47313H133.945V12.1159L138.623 4.47313H143.039V14.4628H140.337V6.44945L135.659 14.4628H131.335V4.47313Z" fill="#282F6C"/>
<path d="M149.245 11.838H154.634V4.47313H157.336V11.838H158.139V15.9914H155.452V14.9878C155.475 14.8323 155.442 14.6736 155.36 14.54C155.233 14.4364 155.075 14.3768 154.912 14.3702H146.543V4.38049H149.245V11.838Z" fill="#282F6C"/>
<path d="M170.923 4.47311V14.4628H168.267V11.6682H163.991C163.874 11.6562 163.756 11.674 163.648 11.7199C163.54 11.7658 163.445 11.8383 163.373 11.9306C163.22 12.1396 163.153 12.3996 163.188 12.6563V14.4628H160.547V12.2086C160.515 11.7438 160.612 11.2792 160.825 10.8653C161.075 10.5305 161.419 10.2778 161.813 10.1396C161.412 9.95967 161.089 9.64194 160.903 9.24409C160.676 8.63613 160.556 7.99369 160.547 7.34496C160.494 6.89958 160.538 6.44786 160.676 6.02123C160.815 5.5946 161.045 5.2033 161.35 4.87456C161.892 4.46129 162.571 4.26826 163.249 4.33416H170.969V4.4268L170.923 4.47311ZM168.267 6.98985H163.991C163.77 6.98199 163.553 7.04711 163.373 7.17512C163.259 7.41649 163.2 7.68014 163.2 7.94712C163.2 8.2141 163.259 8.47775 163.373 8.71912C163.373 8.9044 163.728 8.99704 163.991 8.99704H168.267V6.98985Z" fill="#282F6C"/>
<path d="M117.13 4.47313H119.832V7.97802H125.576V4.47313H128.185V14.4628H125.576V10.5874H119.832V14.4628H117.13V4.47313Z" fill="#282F6C"/>
<path d="M63.507 20.0366V32.3887H60.1874V23.1246H54.3356C54.4741 25.6131 54.1975 28.1073 53.5173 30.505C53.3501 31.0381 53.0143 31.5025 52.5604 31.8283C52.1066 32.1541 51.5591 32.3237 51.0005 32.3114H49.4565V29.069C49.6129 29.0907 49.7719 29.081 49.9245 29.0405C50.077 29.0001 50.22 28.9296 50.345 28.8333C50.47 28.737 50.5746 28.6168 50.6527 28.4797C50.7308 28.3425 50.7808 28.1912 50.7998 28.0346C50.8075 27.9782 50.8075 27.9211 50.7998 27.8647C50.8925 27.1545 50.9697 24.4525 50.9697 19.8668L63.507 20.0366Z" fill="#282F6C"/>
<path d="M81.5876 26.2436C81.5876 29.2081 81.3251 30.9991 80.5994 31.6322C79.8737 32.2652 77.8974 32.6203 74.4234 32.6203C72.772 32.6799 71.1185 32.5921 69.4826 32.3578C69.0398 32.2727 68.6287 32.068 68.2939 31.7659C67.9592 31.4638 67.7135 31.0758 67.5835 30.644C67.3496 29.2208 67.2616 27.7773 67.321 26.3362C67.321 23.2482 67.5835 21.5653 68.2165 20.9322C68.8496 20.2992 70.9185 19.9441 74.3925 19.9441C77.8665 19.9441 79.8892 20.2992 80.5686 20.9322C81.2479 21.5653 81.6493 23.1865 81.6493 26.2436H81.5876ZM70.8413 26.2436C70.717 27.1938 70.8726 28.1597 71.2891 29.0228C72.3595 29.3924 73.4987 29.5189 74.6241 29.3934C75.7445 29.5187 76.8786 29.3921 77.9437 29.0228C78.2217 28.7603 78.3915 27.8648 78.3915 26.2436C78.3915 24.6224 78.2217 23.7269 77.9437 23.4489C76.8764 23.0899 75.7433 22.9687 74.6241 23.0938C73.4999 22.9718 72.3625 23.0929 71.2891 23.4489C70.934 23.7269 70.8413 24.6224 70.8413 26.2436Z" fill="#282F6C"/>
<path d="M90.6808 20.0366L93.6453 27.5868L96.7951 20.0366H102.462V32.4504H99.1419V22.646L95.0812 32.4504H92.3792L87.9788 22.646V32.4504H84.7364V20.0366H90.6808Z" fill="#282F6C"/>
<path d="M105.89 32.4504V20.0984H118.242V23.0629H109.209V24.7768H115.864C116.324 24.7281 116.788 24.7833 117.224 24.9383C117.66 25.0933 118.055 25.3441 118.381 25.6723C118.969 26.4454 119.259 27.4046 119.199 28.3743C119.329 29.5253 119.008 30.6819 118.303 31.6012C117.659 32.172 116.816 32.466 115.956 32.4196H105.89V32.4504ZM109.209 27.4942V29.4705H114.968C115.586 29.4705 115.956 29.208 115.956 28.575C115.97 28.4291 115.952 28.2821 115.904 28.1437C115.856 28.0053 115.779 27.8786 115.679 27.7721C115.509 27.5868 115.323 27.5868 114.968 27.5868H109.209V27.4942Z" fill="#282F6C"/>
<path d="M126.841 20.0366H132.508L137.819 32.3886H133.944L132.956 30.3197H126.394L125.406 32.3886H121.53L126.841 20.0366ZM129.929 22.8158H129.389L127.598 27.139H131.643L129.929 22.8158Z" fill="#282F6C"/>
<path d="M140.599 20.0366H148.705C149.918 19.9225 151.138 20.1696 152.21 20.7469C152.653 21.2987 152.977 21.9358 153.163 22.6185C153.349 23.3012 153.393 24.0148 153.291 24.7149C153.45 26.1086 153.099 27.5127 152.303 28.6676C151.269 29.3486 150.027 29.6387 148.798 29.4859H144.027V32.5739H140.692V20.0675L140.599 20.0366ZM143.842 26.2126H148.613C148.935 26.232 149.254 26.1332 149.508 25.9347C149.648 25.7792 149.753 25.595 149.814 25.395C149.875 25.195 149.892 24.9839 149.863 24.7767C149.888 24.5672 149.868 24.355 149.807 24.1532C149.746 23.9514 149.645 23.7642 149.508 23.6033C149.254 23.4048 148.935 23.306 148.613 23.3253H143.842V26.2126Z" fill="#282F6C"/>
<path d="M156.889 29.208C157.151 29.208 157.429 28.5749 157.614 27.3243C157.833 24.9016 157.921 22.4688 157.877 20.0366H170.105V29.208H170.924V33.701H167.558V33.1606C167.547 32.9399 167.489 32.724 167.388 32.5276C167.233 32.4096 167.042 32.3496 166.848 32.3578H160.208C159.761 32.3578 159.498 32.6202 159.498 33.1606V33.701H156.163V29.208H156.889ZM166.878 29.208V23.1864H161.119C161.119 24.8848 161.027 26.2744 160.934 27.3243C160.949 27.9803 160.795 28.6291 160.486 29.208H166.878Z" fill="#282F6C"/>
<path d="M171 38.2867H49.4717V40.7108H171V38.2867Z" fill="#FAB400"/>
<path d="M34.8215 0.985901H7.59142C5.84608 0.988748 4.17305 1.68334 2.93891 2.91748C1.70476 4.15162 1.01017 5.82466 1.00732 7.56999V34.8C1.00875 36.5458 1.70289 38.2197 2.93733 39.4541C4.17178 40.6886 5.84564 41.3827 7.59142 41.3841H34.8215C36.5672 41.3827 38.2411 40.6886 39.4755 39.4541C40.71 38.2197 41.4041 36.5458 41.4055 34.8V7.56999C41.4041 5.82422 40.71 4.15036 39.4755 2.91591C38.2411 1.68146 36.5672 0.987327 34.8215 0.985901Z" fill="#282F6C"/>
<path d="M1.00732 33.7019V35.0801C1.19575 38.4664 3.95751 41.325 7.31147 41.3842H35.1014C36.7521 41.3179 38.3174 40.6325 39.4856 39.4643C40.6537 38.2961 41.3392 36.7308 41.4055 35.0801V33.7019H1.00732Z" fill="#FAB400"/>
<path d="M8.3126 17.0775L4.73792 13.4059L4.77022 13.3736L8.3126 9.73968L12.2049 5.69124L13.4593 4.40457H28.7324L29.9276 5.62664L33.9437 9.61047L37.6422 13.379L37.6745 13.4113L33.9437 17.2282L29.9868 21.3036L27.6665 23.6885L26.9451 24.4422L25.1578 26.2941L23.6234 27.8607L22.0837 29.4758L21.2385 30.3264L20.9963 30.0734L19.9949 29.0397L18.5521 27.5539L17.0447 26.0142L14.7783 23.6885L12.2049 21.0882L8.3126 17.0775ZM35.4457 12.9214L33.9706 11.4786L32.8401 10.348V12.9214H35.4457ZM29.61 19.4624L30.0191 19.0532L33.9168 15.134L34.8589 14.1919H32.3717L30.0191 18.7087L29.61 19.4624ZM27.6988 12.6522H29.2062L27.6988 11.274L26.9774 10.6172L25.6584 9.42205L26.5682 12.6199H27.6988V12.6522ZM26.9774 19.6508L25.1901 21.4435L24.7217 21.9119L23.645 24.7006L22.8644 26.8056L23.645 25.955L25.1847 24.2968L26.972 22.3534L27.5104 21.815L27.7311 21.3089L29.3946 17.2982L27.7472 18.9563L26.9774 19.6508ZM25.6584 7.22555L26.9774 6.31573L27.5158 5.93888L26.9774 6.00349L25.1901 6.15961L24.7217 6.22421L25.1901 6.72489L25.6584 7.22555ZM26.4444 8.51223L26.9828 8.98598L27.7042 9.61047L30.0245 11.6185L31.5157 12.8729V9.15287L30.0406 7.58087L28.824 6.32112L27.6934 7.35476L26.972 8.01156L26.4444 8.51223ZM25.1901 12.6522H25.5023L25.1901 11.8446L24.5925 10.3373L23.688 11.414L22.6113 12.636H25.1847L25.1901 12.6522ZM24.9693 19.9954L25.1901 19.7746L26.9774 17.9227L27.6988 17.169L30.0191 14.7572L30.4283 14.348H26.8536L25.1901 19.3816L24.9693 19.9954ZM21.9599 14.3157L22.116 15.1286L23.2735 20.5122L23.6504 19.3493L25.1901 14.8971L25.3785 14.3319H21.9599V14.3157ZM21.0824 17.0775L21.0178 17.3305L20.0111 21.815L19.7634 23.0048L20.0111 23.9469L20.9963 27.457L21.0609 27.6454L22.0945 23.4462L22.2829 22.7248L22.0945 21.9065L21.0824 17.0775ZM20.0434 10.9617L21.0501 11.9954L21.1416 12.1192L22.116 11.0856L23.6504 9.38975L24.7271 8.26458L23.6504 7.18787L22.5736 6.11116H19.5427L18.5952 7.22555L17.5939 8.38841L18.5952 9.42205L20.0434 10.9617ZM18.9667 20.5606L20.0434 15.6024L20.2964 14.3803H16.9101L17.0986 14.9187L18.5952 19.3816L18.9667 20.5606ZM18.5952 12.6845H19.6719L18.5952 11.4624L17.6854 10.3857L17.0663 11.8446L16.7217 12.6899H18.5952V12.6845ZM16.6194 7.30093L17.0878 6.80026L17.5562 6.29958L17.0878 6.26728L14.8267 6.03579H14.7944L14.8267 6.06809L16.6194 7.30093ZM17.0878 24.3668L18.5952 26.0142L19.4081 26.8594L18.5952 24.7652L17.5185 21.9765L17.0447 21.5028L14.789 19.2147L12.9209 17.3036L14.7729 21.8204H14.8052L17.0878 24.3668ZM15.6558 12.6845L16.5979 9.45435L14.7783 11.0694L13.0178 12.6845H15.6558ZM14.7783 9.45435L15.7796 8.57683L14.7783 7.63471L13.427 6.38034L12.2372 7.66701L10.7944 9.23362V12.9644L12.2372 11.7101L14.7783 9.45435ZM11.8442 14.3803L12.2211 14.7895L14.7944 17.4812L17.0501 19.8662L17.2385 20.0546L17.0501 19.457L15.3812 14.3803H11.8442ZM9.86845 14.2511H7.34356L8.36643 15.2255L12.2587 19.1178L12.6625 19.5216L12.2587 18.7679L9.86845 14.2511ZM9.4593 12.9644V10.3965L8.32875 11.4732L6.81058 12.9214H9.44315L9.4593 12.9644Z" fill="white"/>
<path d="M4.73792 38.6224V36.4582H7.12283V38.6224H6.58986V36.8996H5.27089V38.6224H4.73792Z" fill="#282F6C"/>
<path d="M9.98151 37.8741C9.98707 37.9899 9.97619 38.1059 9.94921 38.2186C9.92735 38.2999 9.88467 38.3741 9.82539 38.4339C9.75689 38.5028 9.66827 38.548 9.57236 38.5632C9.45136 38.5954 9.32565 38.6064 9.20089 38.5955H8.25339C8.12685 38.6061 7.99941 38.5952 7.87654 38.5632C7.78304 38.5411 7.69624 38.4967 7.62351 38.4339C7.56423 38.3741 7.52155 38.2999 7.49969 38.2186C7.47271 38.1059 7.46183 37.9899 7.46739 37.8741V37.2119C7.46182 37.0854 7.47268 36.9587 7.49969 36.835C7.53199 36.7435 7.56429 36.6466 7.62351 36.6197C7.69624 36.5569 7.78304 36.5126 7.87654 36.4905C7.99941 36.4584 8.12685 36.4475 8.25339 36.4582H9.19551C9.34328 36.4578 9.49028 36.4795 9.63158 36.5228C9.74057 36.5621 9.83085 36.6409 9.88461 36.7435C9.94976 36.8908 9.98104 37.0509 9.97613 37.2119L9.98151 37.8741ZM7.97344 37.8418C7.96868 37.9168 7.97968 37.992 8.00574 38.0625C8.03804 38.1217 8.07035 38.154 8.13495 38.154C8.21326 38.1862 8.29864 38.1974 8.38259 38.1863H9.0663C9.15202 38.1973 9.23913 38.1862 9.31933 38.154C9.364 38.1284 9.40555 38.0977 9.44315 38.0625C9.46921 37.992 9.48022 37.9168 9.47546 37.8418V37.2765C9.48105 37.1908 9.47008 37.1049 9.44315 37.0235C9.4165 36.9698 9.37301 36.9263 9.31933 36.8996C9.23785 36.8727 9.15194 36.8617 9.0663 36.8673H8.40951C8.32379 36.8563 8.23668 36.8674 8.15648 36.8996C8.1028 36.9263 8.05931 36.9698 8.03266 37.0235C8.00047 37.1037 7.98934 37.1908 8.00036 37.2765V37.8418H7.97344Z" fill="#282F6C"/>
<path d="M10.9827 38.6224C10.8336 38.6216 10.6853 38.6017 10.5413 38.5632C10.4931 38.5494 10.4485 38.5254 10.4104 38.4929C10.3724 38.4604 10.3417 38.4201 10.3205 38.3747C10.2874 38.2626 10.2675 38.147 10.2613 38.0302H10.7997C10.7997 38.0894 10.832 38.1217 10.8589 38.1863C10.9137 38.2265 10.9794 38.2491 11.0473 38.2509H11.9195C12.0083 38.2544 12.0962 38.232 12.1725 38.1863C12.2052 38.1677 12.2318 38.14 12.249 38.1065C12.2662 38.073 12.2733 38.0353 12.2694 37.9979C12.2694 37.9333 12.2694 37.9064 12.2371 37.8741L12.1348 37.7772C12.0643 37.7511 11.9891 37.7401 11.9141 37.7449H10.9827V37.3734H11.9841C12.0152 37.3756 12.0464 37.3716 12.076 37.3617C12.1056 37.3518 12.1329 37.3361 12.1564 37.3156C12.1799 37.2951 12.1992 37.2701 12.213 37.2422C12.2269 37.2142 12.235 37.1838 12.2371 37.1527V37.1473C12.2371 36.9912 12.1402 36.9266 11.9841 36.9266H11.1065C11.0315 36.9218 10.9563 36.9328 10.8858 36.9589C10.8478 37.002 10.8267 37.0575 10.8266 37.115H10.3205C10.3259 36.9977 10.3477 36.8817 10.3851 36.7704C10.4112 36.7226 10.4473 36.681 10.491 36.6485C10.5347 36.6159 10.5849 36.5933 10.6382 36.582C10.7796 36.5391 10.9265 36.5174 11.0742 36.5174H11.9518C12.1119 36.5174 12.2713 36.5391 12.4255 36.582C12.4784 36.5926 12.5282 36.615 12.5711 36.6477C12.614 36.6803 12.6489 36.7223 12.6732 36.7704C12.7399 36.8727 12.7737 36.9929 12.7701 37.115C12.7709 37.2266 12.737 37.3357 12.6732 37.4272C12.6162 37.4984 12.5421 37.554 12.4578 37.5887C12.5516 37.6204 12.6364 37.6739 12.7055 37.7449C12.7405 37.782 12.7673 37.8262 12.784 37.8744C12.8007 37.9227 12.8069 37.9739 12.8024 38.0248C12.8024 38.1532 12.7805 38.2806 12.7378 38.4016C12.6765 38.4981 12.5886 38.5748 12.4847 38.6224C12.3536 38.6609 12.2177 38.6808 12.081 38.6816H11.0043V38.6493L10.9827 38.6224Z" fill="#282F6C"/>
<path d="M15.4028 38.6224V36.8996H15.3436L14.0246 38.6224H13.1471V36.4582H13.6478V38.1863H13.7393L15.0583 36.4582H15.9358V38.6224H15.4028Z" fill="#282F6C"/>
<path d="M16.3126 38.6224V36.4582H16.8132V37.2765H17.1309L18.0676 36.4582H18.8536L17.5669 37.4649L18.9182 38.6224H18.1322L17.1632 37.6856H16.8132V38.6224H16.3126Z" fill="#282F6C"/>
<path d="M21.4268 38.6224V36.8996H21.3622L20.0433 38.6224H19.1657V36.4582H19.6718V38.1863H19.7633L21.0823 36.4582H21.9275V38.6224H21.4268Z" fill="#282F6C"/>
<path d="M24.092 38.6224C23.9429 38.6216 23.7946 38.6017 23.6505 38.5632C23.6028 38.55 23.5586 38.5263 23.5213 38.4936C23.484 38.461 23.4546 38.4203 23.4352 38.3747C23.3977 38.2635 23.376 38.1475 23.3706 38.0302H23.909C23.909 38.0894 23.9413 38.1217 23.9736 38.1863C24.0302 38.2228 24.0949 38.245 24.162 38.2509H25.0557C25.1424 38.2512 25.2277 38.2289 25.3033 38.1863C25.336 38.1677 25.3626 38.14 25.3798 38.1065C25.397 38.073 25.4041 38.0353 25.4002 37.9979C25.4002 37.9333 25.4002 37.9064 25.3679 37.8741L25.3033 37.7772C25.2328 37.7511 25.1576 37.7401 25.0826 37.7449H24.092V37.3734H25.0933C25.1238 37.3764 25.1545 37.3733 25.1837 37.3643C25.2129 37.3553 25.2401 37.3407 25.2636 37.3211C25.2871 37.3016 25.3066 37.2776 25.3208 37.2506C25.335 37.2235 25.3437 37.1939 25.3464 37.1634V37.1473C25.3464 36.9912 25.2548 36.9266 25.0933 36.9266H24.2266C24.1533 36.921 24.0797 36.9321 24.0112 36.9589C23.9717 37.0015 23.9487 37.0569 23.9466 37.115H23.4514C23.4548 36.9979 23.4748 36.8819 23.5106 36.7704C23.5382 36.7238 23.5748 36.6832 23.6182 36.6509C23.6616 36.6185 23.7111 36.5951 23.7636 36.582C23.905 36.5391 24.0519 36.5174 24.1997 36.5174H25.0664C25.2248 36.5173 25.3824 36.539 25.5348 36.582C25.5877 36.5942 25.6375 36.6173 25.681 36.6497C25.7246 36.6821 25.7609 36.7232 25.7878 36.7704C25.85 36.8744 25.8818 36.9938 25.8793 37.115C25.8849 37.2264 25.8526 37.3364 25.7878 37.4272C25.7294 37.4992 25.6533 37.5548 25.5671 37.5887C25.6624 37.6204 25.7491 37.6738 25.8201 37.7449C25.8853 37.8231 25.918 37.9232 25.9116 38.0248C25.9117 38.1532 25.8898 38.2806 25.847 38.4016C25.7898 38.4995 25.7031 38.5767 25.5994 38.6224C25.4664 38.6609 25.3287 38.6808 25.1902 38.6816H24.1135V38.6493L24.092 38.6224Z" fill="#282F6C"/>
<path d="M28.8617 38.6224H28.3288V36.9319H28.1673L27.6074 37.3734L27.322 36.9965L28.0111 36.4582H28.8617V38.6224Z" fill="#282F6C"/>
<path d="M31.3703 38.224C31.4542 38.2296 31.5383 38.2186 31.6179 38.1917C31.6825 38.1594 31.7148 38.1594 31.7471 38.0948C31.7794 38.0302 31.7471 38.0033 31.7471 37.9064V37.6264L31.6556 37.7233C31.6114 37.7595 31.5566 37.7803 31.4995 37.7826C31.4099 37.8147 31.3141 37.8258 31.2196 37.8149H30.8104C30.6397 37.8149 30.4696 37.7932 30.3043 37.7503C30.1898 37.727 30.0891 37.6592 30.0244 37.5618C29.9547 37.4511 29.9226 37.3208 29.9329 37.1904C29.9167 37.0545 29.9167 36.9171 29.9329 36.7812C29.9573 36.6886 30.0014 36.6023 30.0621 36.5282C30.131 36.464 30.217 36.421 30.3097 36.4044C30.4444 36.3776 30.5817 36.3667 30.7189 36.3721H31.5156C31.6634 36.372 31.8103 36.3938 31.9517 36.4367C32.0095 36.4472 32.0646 36.4694 32.1136 36.5018C32.1627 36.5341 32.2046 36.5761 32.237 36.6251C32.3022 36.7278 32.3342 36.8481 32.3286 36.9696V37.9387C32.3388 38.0271 32.3269 38.1166 32.294 38.1993C32.2611 38.282 32.2083 38.3552 32.1401 38.4124C31.9544 38.5307 31.7352 38.5855 31.5156 38.5686H30.762C30.6124 38.5686 30.4637 38.5468 30.3205 38.504C30.2121 38.4659 30.1231 38.3866 30.0729 38.2832C30.0061 38.181 29.9723 38.0607 29.976 37.9387H30.4766C30.4766 38.0033 30.4766 38.0356 30.5089 38.0679C30.525 38.0864 30.5449 38.1012 30.5671 38.1114C30.5894 38.1217 30.6136 38.127 30.6381 38.1271H31.3595V38.224H31.3703ZM30.4389 37.1473C30.4386 37.2334 30.4589 37.3183 30.4982 37.3949C30.5628 37.4595 30.6597 37.4596 30.8158 37.4596H31.3541C31.438 37.4651 31.5222 37.4542 31.6018 37.4272C31.6501 37.4049 31.6939 37.3739 31.731 37.3357C31.7472 37.274 31.7472 37.2091 31.731 37.1473C31.7342 37.1059 31.7276 37.0643 31.7117 37.026C31.6958 36.9876 31.671 36.9536 31.6395 36.9266C31.5427 36.8786 31.4351 36.8564 31.3272 36.862H30.7889C30.6792 36.8562 30.5699 36.8784 30.4712 36.9266C30.4452 36.9971 30.4342 37.0723 30.4389 37.1473Z" fill="#282F6C"/>
<path d="M34.0673 38.224C34.1512 38.2296 34.2353 38.2186 34.315 38.1917C34.3796 38.1594 34.4119 38.1594 34.4442 38.0948C34.4765 38.0302 34.4442 38.0033 34.4442 37.9064V37.6264L34.3527 37.7233C34.3095 37.7614 34.254 37.7824 34.1965 37.7825C34.1069 37.8147 34.0111 37.8257 33.9166 37.8148H33.5074C33.3385 37.8149 33.1702 37.7932 33.0068 37.7502C32.949 37.7397 32.8939 37.7175 32.8449 37.6852C32.7958 37.6528 32.7539 37.6108 32.7214 37.5618C32.6518 37.4511 32.6197 37.3208 32.6299 37.1904C32.6138 37.0544 32.6138 36.9171 32.6299 36.7812C32.6543 36.6886 32.6984 36.6023 32.7591 36.5282C32.8295 36.463 32.9175 36.42 33.0122 36.4044C33.1446 36.3749 33.2805 36.3641 33.4159 36.372H34.2073C34.355 36.372 34.502 36.3938 34.6434 36.4367C34.7012 36.4472 34.7562 36.4694 34.8053 36.5017C34.8543 36.5341 34.8963 36.5761 34.9287 36.6251C34.9974 36.7262 35.0297 36.8477 35.0202 36.9696V37.9387C35.0304 38.0271 35.0185 38.1166 34.9856 38.1993C34.9528 38.2819 34.8999 38.3552 34.8318 38.4124C34.646 38.5307 34.4269 38.5855 34.2073 38.5685H33.4536C33.3059 38.5686 33.1589 38.5468 33.0175 38.5039C32.9077 38.4661 32.8169 38.3869 32.7645 38.2832C32.6978 38.181 32.6639 38.0607 32.6676 37.9387H33.1737C33.1737 38.0033 33.1737 38.0356 33.206 38.0679C33.221 38.0862 33.2399 38.1011 33.2613 38.1113C33.2827 38.1215 33.3061 38.1269 33.3298 38.1271H34.0512L34.0673 38.224ZM33.1575 37.1473C33.1572 37.234 33.1795 37.3194 33.2221 37.3949C33.2813 37.4595 33.3782 37.4595 33.5344 37.4595H34.0727C34.1566 37.4651 34.2407 37.4541 34.3204 37.4272C34.3686 37.4049 34.4124 37.3738 34.4496 37.3357C34.4675 37.2744 34.4694 37.2095 34.4549 37.1473C34.4581 37.1059 34.4515 37.0643 34.4356 37.026C34.4197 36.9876 34.395 36.9535 34.3634 36.9266C34.2666 36.8786 34.1591 36.8564 34.0512 36.862H33.5128C33.4049 36.8564 33.2974 36.8786 33.2006 36.9266C33.1606 36.9934 33.1384 37.0694 33.136 37.1473" fill="#282F6C"/>
<path d="M37.6853 37.185C37.691 37.3157 37.6572 37.4452 37.5884 37.5564C37.5182 37.6554 37.421 37.7321 37.3084 37.7772C37.1816 37.8413 37.0414 37.8746 36.8993 37.8741L36.2102 37.901C36.1133 37.901 36.0217 37.901 35.9894 37.9333C35.9654 37.9345 35.9418 37.9409 35.9204 37.952C35.8991 37.9632 35.8804 37.9788 35.8656 37.9979C35.8333 38.0302 35.8333 38.0571 35.8333 38.1217V38.224H37.653V38.6331H35.2842V38.1325C35.2786 38.0468 35.2896 37.9609 35.3165 37.8794C35.3482 37.8108 35.3899 37.7473 35.4403 37.691C35.5159 37.6259 35.6013 37.5732 35.6933 37.5349C35.8271 37.4936 35.9639 37.463 36.1025 37.4434L36.7916 37.4111C36.8886 37.4114 36.9844 37.3893 37.0715 37.3465C37.1361 37.3142 37.1361 37.2227 37.1361 37.1257C37.1442 37.0715 37.1327 37.0162 37.1038 36.9696C37.0687 36.9316 37.0267 36.9005 36.98 36.8781C36.9154 36.8781 36.8239 36.8458 36.727 36.8458H36.3824C36.2666 36.8351 36.1497 36.846 36.0379 36.8781C35.9733 36.8781 35.9087 36.9373 35.9087 36.9696C35.8926 37.0532 35.8926 37.1391 35.9087 37.2227H35.3703C35.3711 37.0736 35.391 36.9252 35.4295 36.7812C35.4619 36.6574 35.5588 36.5928 35.6503 36.5013C35.807 36.4293 35.9787 36.3961 36.1509 36.4044H36.8993C37.0258 36.3961 37.1528 36.407 37.2761 36.4367C37.3668 36.459 37.4514 36.5013 37.5238 36.5605C37.5818 36.6242 37.6259 36.6994 37.653 36.7812V37.1473" fill="#282F6C"/>
<path d="M41.8144 4.62525C41.0408 2.80198 39.5893 1.35046 37.766 0.576815C36.8351 0.182204 35.8322 -0.0139841 34.8212 0.00077501H7.59117C6.57847 -0.00926311 5.57504 0.194359 4.64636 0.59835C2.8231 1.37199 1.37157 2.82352 0.597929 4.64679C0.193937 5.57546 -0.00968424 6.57889 0.000353879 7.59159V34.8001C-0.00968424 35.8128 0.193937 36.8162 0.597929 37.7449C1.37157 39.5682 2.8231 41.0197 4.64636 41.7933C5.57504 42.1973 6.57847 42.4009 7.59117 42.3909H34.8212C35.8339 42.4009 36.8373 42.1973 37.766 41.7933C39.5893 41.0197 41.0408 39.5682 41.8144 37.7449C42.2184 36.8162 42.4221 35.8128 42.412 34.8001V7.57006C42.3893 6.56076 42.1869 5.56358 41.8144 4.62525ZM41.4053 34.8001C41.4039 36.5459 40.7097 38.2197 39.4753 39.4542C38.2408 40.6886 36.567 41.3828 34.8212 41.3842H7.59117C5.84584 41.3813 4.1728 40.6867 2.93866 39.4526C1.70452 38.2185 1.00993 36.5454 1.00708 34.8001V7.57006C1.00993 5.82472 1.70452 4.15169 2.93866 2.91755C4.1728 1.68341 5.84584 0.988813 7.59117 0.985966H34.8212C36.567 0.987392 38.2408 1.68153 39.4753 2.91598C40.7097 4.15042 41.4039 5.82429 41.4053 7.57006V34.8001Z" fill="#282F6C"/>
</svg>
