<svg width="39" height="84" viewBox="0 0 39 84" fill="none" xmlns="http://www.w3.org/2000/svg"><path d="M13.987 50.104l-.498.047.498-.047zm20.545-36.36l.418.274-.418-.274zM38.457 0l-.087-.492a.5.5 0 0 1 .584.437L38.457 0zM18.73 19.39l.498-.042-.498.042zM15.732 6.416l-.397-.303a.5.5 0 0 1 .826.046l-.429.257zm-4.38 28.878l-.47.171.47-.171zM5.081 23.628l-.466-.183a.5.5 0 0 1 .81-.18l-.344.363zm6.452 30.148l-.353.354.353-.354zM.5 45.632l-.499.035a.5.5 0 0 1 .648-.512L.5 45.63zM15.514 69.89l.112-.487-.112.487zM2.24 68.987l-.41.286a.5.5 0 0 1 .27-.766l.14.48zm19.7-41.567l.261.426-.26-.427zm10.794-4.316l-.007-.5a.5.5 0 0 1 .493.617l-.486-.117zm-13.12 19.79l.316.389-.315-.389zm10.699-6.042l-.074-.494a.5.5 0 0 1 .57.546l-.496-.052zM22.829 58.81l-.392-.31.392.31zm9.631-8.76l-.182-.465a.5.5 0 0 1 .68.417l-.498.049zm-17.975.007c1.39 14.702 10.12 26.898 22.166 33.23l-.466.886C23.85 77.688 14.912 65.199 13.49 50.15l.996-.094zm9.484-30.925c-6.874 8.304-10.585 19.285-9.484 30.925l-.996.094c-1.126-11.913 2.672-23.156 9.71-31.657l.77.638zm2.483-12.066c-1.898 2.567-2.795 5.1-2.978 7.184-.185 2.106.359 3.674 1.223 4.436l-.661.75c-1.198-1.057-1.758-3.004-1.558-5.274.201-2.29 1.177-4.995 3.17-7.69l.804.594zm-1.755 11.62c.387.341.946.506 1.672.456.727-.05 1.585-.316 2.499-.788 1.827-.943 3.79-2.667 5.246-4.885l.836.55c-1.544 2.35-3.633 4.196-5.623 5.223-.995.514-1.987.835-2.89.897-.905.063-1.757-.134-2.401-.703l.661-.75zm9.417-5.217C36.4 9.99 37.36 6.625 37.75 4.132c.195-1.246.247-2.273.25-2.986a13.443 13.443 0 0 0-.033-1.028l-.004-.05-.001-.011V.055L38.457 0l.497-.055v.003l.001.005a.827.827 0 0 1 .008.081l.016.237c.012.205.023.503.02.88a21.152 21.152 0 0 1-.262 3.136c-.407 2.604-1.41 6.11-3.787 9.731l-.836-.549zM38.457 0l.088.492h-.001l-.004.001-.016.003a8.16 8.16 0 0 0-.336.068c-.234.05-.574.128-.996.237-.845.22-2.01.566-3.295 1.074-2.584 1.022-5.582 2.67-7.445 5.19l-.804-.594c2.028-2.743 5.234-4.479 7.881-5.526A29.73 29.73 0 0 1 36.94-.167a24.704 24.704 0 0 1 1.428-.325h.002l.087.492zM11.524 18.992c.1 3.007.855 5.347 1.842 6.917 1.001 1.592 2.178 2.306 3.105 2.296l.01 1c-1.431.016-2.878-1.04-3.962-2.764-1.098-1.746-1.89-4.267-1.995-7.415l1-.034zm4.947 9.213c.415-.004.738-.18 1.013-.547.29-.389.52-.989.675-1.8.309-1.616.288-3.882.073-6.425l.996-.085c.217 2.562.249 4.94-.087 6.699-.168.876-.435 1.646-.856 2.21-.436.583-1.038.94-1.803.948l-.011-1zm1.76-8.772c-.39-4.608-1.132-7.815-1.772-9.861a20.406 20.406 0 0 0-.825-2.23 9.77 9.77 0 0 0-.328-.665l-.003-.005.43-.256.428-.257.001.002.003.004.006.011a3.834 3.834 0 0 1 .101.186c.067.128.16.317.275.572.227.51.535 1.28.867 2.34.663 2.12 1.419 5.4 1.814 10.074l-.997.085zM15.732 6.416l.398.303a.4.4 0 0 1-.003.003l-.01.013a24.29 24.29 0 0 0-.732 1.057 29.935 29.935 0 0 0-1.638 2.838c-1.188 2.351-2.322 5.41-2.223 8.362l-1 .034c-.106-3.203 1.114-6.441 2.33-8.847a30.926 30.926 0 0 1 1.695-2.935 25.195 25.195 0 0 1 .726-1.051l.043-.059.012-.015.003-.004.001-.002.398.303zM4.37 37.027c.885 2.877 2.22 4.917 3.573 6.143 1.37 1.244 2.675 1.587 3.553 1.309l.303.953c-1.37.434-3.036-.168-4.528-1.52-1.51-1.37-2.93-3.578-3.857-6.59l.956-.295zm7.126 7.452c.396-.126.664-.393.833-.836.177-.465.238-1.115.173-1.944-.13-1.654-.746-3.839-1.62-6.234l.94-.343c.88 2.414 1.536 4.703 1.677 6.5.07.895.016 1.715-.236 2.377-.26.684-.737 1.202-1.464 1.433l-.303-.953zm-.613-9.014C9.3 31.125 7.748 28.243 6.6 26.452a19.87 19.87 0 0 0-1.373-1.913 9.446 9.446 0 0 0-.487-.545l-.004-.004.345-.362.344-.363.001.002.004.003.009.009a2.88 2.88 0 0 1 .146.15c.097.105.237.26.413.474.352.426.848 1.081 1.444 2.01 1.19 1.856 2.774 4.806 4.38 9.21l-.94.342zM5.08 23.628l.465.182-.001.004-.006.015a9.659 9.659 0 0 0-.113.307 31.036 31.036 0 0 0-1.129 4.154c-.519 2.622-.798 5.91.073 8.737l-.956.295c-.943-3.063-.628-6.548-.098-9.226.266-1.347.59-2.506.847-3.329a26.474 26.474 0 0 1 .442-1.296l.007-.018a.43.43 0 0 1 .003-.007l.466.182zm.717 35.286c2.107 2.335 4.257 3.64 6.059 4.156 1.821.521 3.192.218 3.898-.494l.71.704c-1.068 1.078-2.884 1.323-4.883.752-2.019-.578-4.323-2.006-6.527-4.448l.743-.67zm9.957 3.662c.325-.329.462-.739.42-1.264-.043-.546-.28-1.208-.71-1.974-.859-1.531-2.406-3.332-4.285-5.208l.706-.707c1.894 1.89 3.522 3.77 4.451 5.425.465.828.776 1.635.835 2.385.06.77-.146 1.48-.707 2.047l-.71-.704zM11.18 54.13c-3.406-3.398-6.135-5.41-8-6.569-.933-.58-1.65-.946-2.13-1.166a9.183 9.183 0 0 0-.694-.285c-.003 0-.005-.001-.005-.002l.149-.477.15-.477.004.002a20.543 20.543 0 0 1 3.052 1.556c1.936 1.202 4.724 3.263 8.179 6.71l-.706.708zM.5 45.631l.499-.035v.001a.735.735 0 0 0 .001.021 9.456 9.456 0 0 0 .032.352 34.706 34.706 0 0 0 .8 4.559c.687 2.782 1.894 6.09 3.966 8.385l-.743.67C2.817 57.104 1.56 53.602.861 50.77a35.7 35.7 0 0 1-.693-3.613 29.543 29.543 0 0 1-.167-1.49l.499-.035zM13.505 77.56c2.934.845 5.365.776 7.1.22 1.747-.56 2.72-1.584 2.931-2.614l.98.2c-.309 1.511-1.658 2.742-3.606 3.367-1.962.629-4.6.676-7.682-.213l.277-.96zm10.031-2.394c.19-.924-.396-1.809-1.923-2.671-1.497-.846-3.697-1.542-6.21-2.118l.223-.975c2.536.582 4.852 1.303 6.478 2.222 1.597.901 2.743 2.126 2.412 3.743l-.98-.2zm-8.134-4.79c-4.555-1.044-7.832-1.264-9.959-1.227-1.063.018-1.84.1-2.344.177a8.42 8.42 0 0 0-.713.14h-.005v.001l-.14-.48-.14-.48h.002l.004-.002c.004 0 .008-.002.013-.004l.045-.011a9.428 9.428 0 0 1 .784-.152c.55-.084 1.37-.17 2.477-.19 2.214-.037 5.573.193 10.2 1.254l-.224.975zm-13.16-1.39l.41-.285.002.004.01.014a10.206 10.206 0 0 0 .21.287 34.694 34.694 0 0 0 3.03 3.505c2.01 2.03 4.718 4.218 7.6 5.049l-.276.96c-3.133-.903-5.989-3.24-8.035-5.305a35.7 35.7 0 0 1-2.45-2.744 29.916 29.916 0 0 1-.895-1.174l-.012-.017-.003-.005-.001-.001.41-.287zm24.486-34.692c-2.295 1.598-4.533 2.266-6.397 2.245-1.851-.02-3.387-.728-4.144-1.946l.85-.528c.52.838 1.674 1.457 3.305 1.474 1.62.018 3.658-.564 5.815-2.066l.571.82zm-10.54.3a2.517 2.517 0 0 1-.307-2.003c.166-.665.565-1.314 1.099-1.934 1.065-1.238 2.772-2.485 4.7-3.664l.522.853c-1.908 1.166-3.504 2.347-4.464 3.463-.48.557-.773 1.068-.887 1.525-.11.438-.058.84.185 1.231l-.849.528zm5.493-7.601c3.521-2.153 6.26-3.25 8.13-3.81a16.047 16.047 0 0 1 2.143-.498 8.278 8.278 0 0 1 .713-.079 1.927 1.927 0 0 1 .054-.002h.006l.008.5.007.5h-.003l-.024.001a7.286 7.286 0 0 0-.61.068 15.04 15.04 0 0 0-2.008.469c-1.782.533-4.441 1.593-7.895 3.704l-.521-.853zm11.054-3.889l.486.117v.002l-.001.005a1.265 1.265 0 0 1-.022.087l-.068.257a29.888 29.888 0 0 1-1.414 3.961c-1.027 2.33-2.646 5.13-4.988 6.76l-.571-.82c2.11-1.47 3.637-4.059 4.644-6.343a28.889 28.889 0 0 0 1.364-3.822 15.65 15.65 0 0 0 .083-.317v-.003h.001l.486.116zm-7.18 26.285c-2.177 1.994-4.421 3.006-6.367 3.247-1.934.24-3.628-.282-4.581-1.44l.772-.636c.668.811 1.97 1.297 3.686 1.084 1.704-.212 3.761-1.113 5.815-2.992l.675.737zm-10.948 1.806a2.626 2.626 0 0 1-.591-2.03c.081-.714.407-1.445.878-2.167.941-1.443 2.552-2.986 4.407-4.492l.63.776c-1.836 1.49-3.346 2.955-4.2 4.262-.425.653-.665 1.233-.722 1.733-.054.482.057.902.37 1.283l-.772.635zm4.694-8.689c3.386-2.749 6.096-4.283 7.974-5.131a16.93 16.93 0 0 1 2.17-.824 8.671 8.671 0 0 1 .732-.182 3.051 3.051 0 0 1 .056-.01h.004l.002-.001.075.494.074.495h-.004l-.026.005a7.674 7.674 0 0 0-.631.158c-.457.134-1.143.37-2.04.776-1.794.81-4.432 2.298-7.756 4.996l-.63-.776zm11.013-5.654l.497.053v.007l-.003.02a26.724 26.724 0 0 1-.203 1.364 31.8 31.8 0 0 1-.773 3.328c-.752 2.582-2.058 5.734-4.277 7.765l-.675-.737c2.011-1.842 3.254-4.774 3.992-7.308a30.58 30.58 0 0 0 .9-4.195 17.35 17.35 0 0 0 .044-.344V36.8l.498.051zm-.078 27.314c-1.795 2.57-3.863 4.138-5.79 4.838-1.915.695-3.75.546-4.963-.436l.63-.777c.852.69 2.284.893 3.992.273 1.697-.617 3.61-2.034 5.312-4.47l.82.572zm-10.753 4.402c-1.299-1.05-1.23-2.7-.585-4.39.652-1.71 1.966-3.683 3.539-5.678l.785.62c-1.558 1.975-2.793 3.85-3.39 5.415-.605 1.585-.487 2.635.28 3.256l-.629.777zM22.437 58.5c2.87-3.639 5.307-5.86 7.04-7.174a17.93 17.93 0 0 1 2.034-1.358 9.03 9.03 0 0 1 .705-.357 2 2 0 0 1 .042-.018l.013-.005.004-.002h.002l.183.465.183.465-.004.002a2.546 2.546 0 0 0-.145.065 8.067 8.067 0 0 0-.493.257c-.438.246-1.09.652-1.92 1.282-1.66 1.26-4.037 3.42-6.86 6.998l-.784-.62zm10.023-8.45l.498-.048v.008l.002.021.007.079a29.1 29.1 0 0 1 .073 1.383 34.43 34.43 0 0 1-.087 3.634c-.223 2.855-.89 6.423-2.717 9.039l-.82-.573c1.67-2.39 2.32-5.737 2.54-8.544a33.407 33.407 0 0 0 .035-4.576 17.132 17.132 0 0 0-.026-.352l-.002-.017V50.1l.497-.05z" fill="#626CC3"/></svg>