<svg width="90" height="71" viewBox="0 0 90 71" fill="none" xmlns="http://www.w3.org/2000/svg"><path d="M63 55c0 8.837-8.059 16-18 16s-18-7.163-18-16 8.059-16 18-16 18 7.163 18 16z" fill="#FFC85E"/><path d="M26.335 58.185C23.843 59.345 21.008 60 18 60 8.059 60 0 52.837 0 44s8.059-16 18-16c8.508 0 15.637 5.247 17.516 12.298C29.826 43.244 26 48.725 26 55c0 1.089.115 2.153.335 3.185zm37.557.104A19.771 19.771 0 0 0 72 60c9.941 0 18-7.163 18-16s-8.059-16-18-16c-8.463 0-15.561 5.191-17.486 12.186C60.326 43.103 64.25 48.644 64.25 55c0 1.125-.123 2.225-.358 3.289z" fill="#FFC85E"/><path d="M41.5 35h7M18.423 23.706C18.423 10.5 30.817 1 45 1m0 0c14.183 0 26.577 9.5 26.577 22.706M45 1v34M15 24h7m46 0h7" stroke="#626CC3" stroke-width="2" stroke-linecap="round" stroke-linejoin="round"/></svg>