<svg width="171" height="43" viewBox="0 0 171 43" fill="none" xmlns="http://www.w3.org/2000/svg"><path d="M54.845 4.288a9.341 9.341 0 0 1 4.632.726c.54.447.726 1.544.726 3.242h-2.81c0-.54-.093-.911-.355-1.08a5.605 5.605 0 0 0-2.254-.279c-1.267 0-2.07.093-2.255.355a3.859 3.859 0 0 0-.355 2.162c0 1.266.093 1.976.355 2.162.71.304 1.485.426 2.255.355a5.883 5.883 0 0 0 2.316-.263 1.297 1.297 0 0 0 .447-1.173h2.64c0 1.806-.277 2.887-.725 3.242a8.847 8.847 0 0 1-4.632.726c-2.517 0-3.968-.278-4.493-.818-.525-.54-.818-1.977-.818-4.324a8.105 8.105 0 0 1 .725-4.307 8.646 8.646 0 0 1 4.493-.726m8.136.185h2.702v3.505h1.436l2.965-3.505h3.705l-4.323 4.771 4.864 5.219h-3.876l-3.335-3.876h-1.436v3.876h-2.702v-9.99zm17.278 0h4.633l4.323 9.99h-3.088l-.803-1.714h-5.42l-.818 1.714H75.89l4.261-9.99zm2.486 2.239h-.447l-1.436 3.428h3.242l-1.359-3.428zm15.055-2.239a4.06 4.06 0 0 1 2.794.633 6.581 6.581 0 0 1 0 6.284 4.245 4.245 0 0 1-2.794.633h-3.86v2.44h-2.764v-9.99h6.624zm-3.768 4.94h3.86c.265.002.522-.091.726-.262.197-.29.29-.638.262-.988a1.698 1.698 0 0 0-.262-.988.896.896 0 0 0-.726-.278h-3.86v2.517zm9.882 5.05v-9.99h9.897v2.424h-7.288v1.344h5.404a2.838 2.838 0 0 1 2.069.725c.489.644.715 1.45.633 2.254a3.938 3.938 0 0 1-.726 2.61 2.47 2.47 0 0 1-1.883.633h-8.106zm2.609-3.968v1.544h4.632c.525 0 .71-.263.71-.71a.853.853 0 0 0-.169-.634 1.13 1.13 0 0 0-.634-.185l-4.539-.015zm24.92-6.022h2.61v7.643l4.678-7.643h4.416v9.99h-2.702V6.449l-4.678 8.014h-4.324v-9.99zm17.91 7.365h5.389V4.473h2.702v7.365h.803v4.153h-2.687v-1.003a.67.67 0 0 0-.092-.448.759.759 0 0 0-.448-.17h-8.369V4.38h2.702v7.458zm21.678-7.365v9.99h-2.656v-2.795h-4.276a.695.695 0 0 0-.618.263 1 1 0 0 0-.185.725v1.807h-2.641v-2.254c-.032-.465.065-.93.278-1.344.25-.335.594-.587.988-.725a1.832 1.832 0 0 1-.91-.896 5.653 5.653 0 0 1-.356-1.899 3.096 3.096 0 0 1 .803-2.47 2.702 2.702 0 0 1 1.899-.54h7.72v.092l-.046.046zm-2.656 2.517h-4.276a1.004 1.004 0 0 0-.618.185 1.808 1.808 0 0 0 0 1.544c0 .185.355.278.618.278h4.276V6.99zM117.13 4.473h2.702v3.505h5.744V4.473h2.609v9.99h-2.609v-3.876h-5.744v3.876h-2.702v-9.99zM63.507 20.037v12.352h-3.32v-9.264h-5.851a22.468 22.468 0 0 1-.819 7.38A2.579 2.579 0 0 1 51 32.311h-1.544V29.07a1.188 1.188 0 0 0 1.344-1.034.628.628 0 0 0 0-.17c.093-.71.17-3.412.17-7.998l12.537.17zm18.081 6.207c0 2.964-.263 4.755-.989 5.388-.725.633-2.702.988-6.176.988a27.782 27.782 0 0 1-4.94-.262 2.47 2.47 0 0 1-1.9-1.714 21.184 21.184 0 0 1-.262-4.308c0-3.088.263-4.77.895-5.404.634-.633 2.703-.988 6.177-.988 3.474 0 5.496.355 6.176.988.679.633 1.08 2.255 1.08 5.312h-.061zm-10.747 0c-.124.95.032 1.916.448 2.779 1.07.37 2.21.496 3.335.37a7.566 7.566 0 0 0 3.32-.37c.278-.263.447-1.158.447-2.78 0-1.62-.17-2.516-.447-2.794a7.722 7.722 0 0 0-3.32-.355 7.89 7.89 0 0 0-3.335.355c-.355.278-.448 1.173-.448 2.795zm19.839-6.207l2.965 7.55 3.15-7.55h5.667V32.45h-3.32v-9.804l-4.06 9.804h-2.703l-4.4-9.804v9.804h-3.243V20.037h5.945zm15.21 12.413V20.098h12.352v2.965h-9.033v1.714h6.655a3.087 3.087 0 0 1 2.517.895 4.05 4.05 0 0 1 .818 2.702 4.477 4.477 0 0 1-.896 3.227 3.272 3.272 0 0 1-2.347.819H105.89v.03zm3.319-4.956v1.977h5.759c.618 0 .988-.263.988-.896a1.019 1.019 0 0 0-.277-.803c-.17-.185-.356-.185-.711-.185h-5.759v-.093zm17.632-7.457h5.667l5.311 12.352h-3.875l-.988-2.07h-6.562l-.988 2.07h-3.876l5.311-12.352zm3.088 2.779h-.54l-1.791 4.323h4.045l-1.714-4.323zm10.67-2.779h8.106a6.174 6.174 0 0 1 3.505.71 5.152 5.152 0 0 1 1.081 3.968 5.806 5.806 0 0 1-.988 3.953 5.203 5.203 0 0 1-3.505.818h-4.771v3.088h-3.335V20.068l-.093-.031zm3.243 6.176h4.771c.322.019.641-.08.895-.278a1.432 1.432 0 0 0 .355-1.158 1.53 1.53 0 0 0-.355-1.174 1.326 1.326 0 0 0-.895-.278h-4.771v2.888zm13.047 2.995c.262 0 .54-.633.725-1.884a67.39 67.39 0 0 0 .263-7.287h12.228v9.171h.819v4.493h-3.366v-.54a1.554 1.554 0 0 0-.17-.633.833.833 0 0 0-.54-.17h-6.64c-.447 0-.71.262-.71.803v.54h-3.335v-4.493h.726zm9.989 0v-6.022h-5.759a46.31 46.31 0 0 1-.185 4.138 3.815 3.815 0 0 1-.448 1.884h6.392z" fill="#282F6C"/><path d="M171 38.287H49.472v2.424H171v-2.424z" fill="#FAB400"/><path d="M34.822.986H7.591A6.595 6.595 0 0 0 1.006 7.57V34.8a6.59 6.59 0 0 0 6.584 6.584h27.23a6.589 6.589 0 0 0 6.585-6.584V7.57A6.59 6.59 0 0 0 34.822.986z" fill="#282F6C"/><path d="M1.007 33.702v1.378c.189 3.386 2.95 6.245 6.304 6.304h27.79a6.573 6.573 0 0 0 6.305-6.304v-1.378H1.007z" fill="#FAB400"/><path d="M8.313 17.078l-3.575-3.672.032-.032L8.313 9.74l3.892-4.049 1.254-1.286h15.273l1.196 1.222 4.016 3.983 3.698 3.769.032.032-3.73 3.817-3.957 4.076-2.32 2.385-.722.753-1.787 1.852-1.535 1.567-1.54 1.615-.845.85-.242-.253-1.001-1.033-1.443-1.486-1.507-1.54-2.267-2.325-2.573-2.6-3.892-4.011zm27.133-4.157L33.97 11.48l-1.13-1.131v2.573h2.605zm-5.836 6.541l.41-.409 3.897-3.919.942-.942h-2.487l-2.353 4.517-.409.753zm-1.911-6.81h1.507L27.7 11.274l-.722-.657-1.319-1.195.91 3.198h1.13v.032zm-.722 6.999l-1.787 1.793-.468.468-1.077 2.789-.78 2.105.78-.851 1.54-1.658 1.787-1.944.538-.538.221-.506 1.664-4.01-1.648 1.657-.77.695zM25.658 7.226l1.32-.91.538-.377-.539.064-1.787.157-.468.064.468.5.468.502zm.786 1.286l.539.474.721.624 2.32 2.008 1.492 1.255v-3.72L30.04 7.58l-1.217-1.26-1.13 1.034-.722.657-.528.5zm-1.254 4.14h.312l-.312-.807-.598-1.508-.904 1.077-1.077 1.222h2.574l.005.016zm-.22 7.343l.22-.22 1.787-1.852.722-.754 2.32-2.412.41-.409h-3.575l-1.664 5.034-.22.613zm-3.01-5.68l.156.814 1.157 5.383.377-1.163 1.54-4.452.188-.565H21.96v-.016zm-.878 2.763l-.064.253-1.007 4.484-.248 1.19.248.942.985 3.51.065.188 1.034-4.199.188-.721-.189-.819-1.012-4.828zm-1.039-6.116l1.007 1.033.092.124.974-1.033L23.65 9.39l1.077-1.125-1.077-1.077-1.076-1.077h-3.031l-.948 1.115-1.001 1.162 1.001 1.034 1.448 1.54zm-1.076 9.599l1.076-4.959.253-1.222H16.91l.189.539 1.496 4.463.372 1.179zm-.372-7.877h1.077l-1.077-1.222-.91-1.076-.619 1.459-.344.845h1.873v-.005zM16.62 7.301l.469-.5.468-.501-.468-.033-2.261-.231h-.033l.033.032 1.792 1.233zm.469 17.066l1.507 1.647.813.845-.813-2.094-1.076-2.788-.474-.474-2.256-2.288-1.868-1.911 1.852 4.516h.032l2.283 2.547zm-1.432-11.683l.942-3.23-1.82 1.615-1.76 1.615h2.638zm-.878-3.23l1.002-.877-1.002-.942-1.351-1.255-1.19 1.287-1.443 1.567v3.73l1.443-1.254 2.541-2.256zm-2.934 4.926l.377.41 2.573 2.691 2.256 2.385.188.189-.188-.598-1.669-5.077h-3.537zm-1.976-.129H7.344l1.022.975 3.893 3.892.403.404-.403-.754-2.39-4.517zm-.409-1.287v-2.568l-1.13 1.077-1.518 1.448h2.632l.016.043z" fill="#fff"/><path d="M4.738 38.622v-2.164h2.385v2.164H6.59V36.9H5.27v1.722h-.532zm5.244-.748c.005.116-.006.232-.033.345a.485.485 0 0 1-.124.215.458.458 0 0 1-.253.13 1.08 1.08 0 0 1-.371.032h-.948c-.126.01-.254 0-.376-.033a.598.598 0 0 1-.253-.13.485.485 0 0 1-.124-.214 1.227 1.227 0 0 1-.033-.345v-.662a1.465 1.465 0 0 1 .033-.377c.032-.092.064-.188.124-.215a.597.597 0 0 1 .253-.13c.122-.032.25-.043.376-.032h.943c.147 0 .294.022.436.065.109.04.199.118.253.22.065.148.096.308.091.469l.006.662zm-2.009-.032a.538.538 0 0 0 .033.22c.032.06.064.092.129.092a.484.484 0 0 0 .248.032h.683c.086.011.173 0 .253-.032a.665.665 0 0 0 .124-.092.538.538 0 0 0 .032-.22v-.566a.667.667 0 0 0-.032-.253.275.275 0 0 0-.124-.123.668.668 0 0 0-.253-.033H8.41a.506.506 0 0 0-.254.033.275.275 0 0 0-.123.123.506.506 0 0 0-.033.253v.566h-.027zm3.01.78c-.15 0-.298-.02-.442-.059a.35.35 0 0 1-.22-.188 1.497 1.497 0 0 1-.06-.345h.539c0 .06.032.092.059.156.055.04.12.063.188.065h.872a.457.457 0 0 0 .253-.065.193.193 0 0 0 .097-.188c0-.065 0-.092-.032-.124l-.102-.097a.537.537 0 0 0-.22-.032h-.932v-.372h1.001a.237.237 0 0 0 .253-.22v-.006c0-.156-.097-.22-.253-.22h-.877a.537.537 0 0 0-.221.032.237.237 0 0 0-.06.156h-.506c.006-.117.028-.233.065-.345a.377.377 0 0 1 .253-.188c.142-.043.289-.065.436-.065h.878c.16 0 .32.022.473.065a.355.355 0 0 1 .248.188c.067.103.1.223.097.345a.54.54 0 0 1-.097.312.539.539 0 0 1-.215.162.625.625 0 0 1 .248.156.361.361 0 0 1 .096.28c0 .128-.021.256-.064.377a.592.592 0 0 1-.253.22 1.463 1.463 0 0 1-.404.06h-1.077v-.033l-.021-.027zm4.42 0V36.9h-.06l-1.318 1.722h-.878v-2.164h.5v1.728h.092l1.32-1.728h.877v2.164h-.533zm.91 0v-2.164h.5v.819h.318l.937-.819h.786l-1.287 1.007 1.351 1.157h-.786l-.969-.936h-.35v.936h-.5zm5.114 0V36.9h-.065l-1.319 1.722h-.877v-2.164h.506v1.728h.091l1.32-1.728h.845v2.164h-.501zm2.665 0c-.15 0-.297-.02-.441-.059a.329.329 0 0 1-.216-.188 1.26 1.26 0 0 1-.064-.345h.538c0 .06.032.092.065.156a.415.415 0 0 0 .188.065h.894a.5.5 0 0 0 .247-.065.193.193 0 0 0 .097-.188c0-.065 0-.092-.032-.124l-.065-.097a.537.537 0 0 0-.22-.032h-.991v-.372h1.001a.23.23 0 0 0 .253-.21v-.016c0-.156-.091-.22-.253-.22h-.866a.489.489 0 0 0-.216.032.243.243 0 0 0-.064.156h-.496c.004-.117.024-.233.06-.345a.408.408 0 0 1 .253-.188c.141-.043.288-.065.436-.065h.866c.159 0 .316.022.469.065a.393.393 0 0 1 .253.188.645.645 0 0 1 .091.345.495.495 0 0 1-.091.312.537.537 0 0 1-.22.162.645.645 0 0 1 .252.156.398.398 0 0 1 .092.28c0 .128-.022.256-.065.377a.538.538 0 0 1-.248.22c-.133.039-.27.059-.409.06h-1.077v-.033l-.021-.027zm4.77 0h-.533v-1.69h-.162l-.56.441-.285-.377.69-.538h.85v2.164zm2.508-.398a.64.64 0 0 0 .248-.032c.065-.033.097-.033.13-.097.031-.065 0-.092 0-.189v-.28l-.092.097a.263.263 0 0 1-.156.06.62.62 0 0 1-.28.032h-.41c-.17 0-.34-.022-.506-.065a.442.442 0 0 1-.28-.188.607.607 0 0 1-.091-.372 1.729 1.729 0 0 1 0-.409.668.668 0 0 1 .13-.253.49.49 0 0 1 .247-.124c.134-.026.272-.037.409-.032h.797c.147 0 .294.022.436.065a.434.434 0 0 1 .285.188.592.592 0 0 1 .092.345v.969a.538.538 0 0 1-.189.473 1.017 1.017 0 0 1-.624.157h-.754a1.54 1.54 0 0 1-.442-.065.436.436 0 0 1-.247-.22.597.597 0 0 1-.097-.345h.5c0 .064 0 .097.033.129a.173.173 0 0 0 .13.06h.72v.096h.011zm-.931-1.077c0 .086.02.171.06.248.064.064.16.065.317.065h.538a.64.64 0 0 0 .248-.033.433.433 0 0 0 .129-.091.371.371 0 0 0 0-.189.264.264 0 0 0-.091-.22.63.63 0 0 0-.313-.065h-.538a.646.646 0 0 0-.318.065.54.54 0 0 0-.032.22zm3.628 1.077a.64.64 0 0 0 .248-.032c.065-.033.097-.033.13-.097.032-.065 0-.092 0-.189v-.28l-.092.097a.237.237 0 0 1-.157.06.618.618 0 0 1-.28.032h-.409c-.168 0-.337-.022-.5-.065a.436.436 0 0 1-.286-.188.609.609 0 0 1-.091-.372 1.74 1.74 0 0 1 0-.409.668.668 0 0 1 .13-.253.49.49 0 0 1 .252-.124c.133-.03.269-.04.404-.032h.791c.148 0 .295.022.436.065a.437.437 0 0 1 .286.188.539.539 0 0 1 .091.345v.969a.538.538 0 0 1-.188.473 1.017 1.017 0 0 1-.625.157h-.753c-.148 0-.295-.022-.437-.065a.446.446 0 0 1-.253-.22.597.597 0 0 1-.096-.345h.506c0 .064 0 .097.032.129a.161.161 0 0 0 .124.06h.721l.016.096zm-.91-1.077a.5.5 0 0 0 .065.248c.06.064.156.064.312.064h.539a.64.64 0 0 0 .247-.032.438.438 0 0 0 .13-.091.371.371 0 0 0 .005-.189.264.264 0 0 0-.092-.22.63.63 0 0 0-.312-.065h-.538a.63.63 0 0 0-.312.065.457.457 0 0 0-.065.22m4.549.038a.652.652 0 0 1-.097.371.63.63 0 0 1-.28.221.9.9 0 0 1-.409.097l-.689.027c-.097 0-.188 0-.22.032a.168.168 0 0 0-.124.065c-.033.032-.033.06-.033.124v.102h1.82v.41h-2.369v-.502a.668.668 0 0 1 .032-.253.761.761 0 0 1 .124-.188.943.943 0 0 1 .253-.156c.134-.041.27-.072.41-.092l.689-.032a.63.63 0 0 0 .28-.065c.064-.032.064-.123.064-.22a.231.231 0 0 0-.032-.156.41.41 0 0 0-.124-.092c-.065 0-.156-.032-.253-.032h-.345a.936.936 0 0 0-.344.032c-.065 0-.13.06-.13.092a.67.67 0 0 0 0 .253h-.538c.001-.15.021-.298.06-.442.032-.124.129-.188.22-.28a1.08 1.08 0 0 1 .5-.097h.75c.126-.008.253.003.376.033.09.022.175.064.248.123a.615.615 0 0 1 .129.221v.366" fill="#282F6C"/><path d="M41.814 4.625A7.639 7.639 0 0 0 37.766.577 7.273 7.273 0 0 0 34.821 0H7.591a7.203 7.203 0 0 0-2.945.597 7.64 7.64 0 0 0-4.048 4.05A7.203 7.203 0 0 0 0 7.592V34.8a7.203 7.203 0 0 0 .598 2.945 7.639 7.639 0 0 0 4.048 4.048 7.204 7.204 0 0 0 2.945.598h27.23a7.204 7.204 0 0 0 2.945-.598 7.639 7.639 0 0 0 4.048-4.048 7.202 7.202 0 0 0 .598-2.945V7.57a8.5 8.5 0 0 0-.598-2.945zM41.405 34.8a6.59 6.59 0 0 1-6.584 6.584H7.591A6.595 6.595 0 0 1 1.007 34.8V7.57A6.595 6.595 0 0 1 7.591.986h27.23a6.59 6.59 0 0 1 6.584 6.584V34.8z" fill="#282F6C"/></svg>