<svg xmlns="http://www.w3.org/2000/svg" width="15" height="32" viewBox="0 0 15 32"><title>Vector</title><path fill="#626cc3" d="M5.328 19.087zm7.827-13.851zM14.65 0l-.033-.188a.19.19 0 0 1 .222.166l-.189.021zM7.135 7.387zM5.993 2.444l-.151-.116a.19.19 0 0 1 .315.017l-.163.098zM4.325 13.445zm-2.39-4.444l-.177-.07a.19.19 0 0 1 .308-.068l-.131.138zm2.458 11.485zM.19 17.383l-.19.013a.19.19 0 0 1 .247-.195l-.057.182zm5.72 9.242zm-5.056-.344l-.156.109a.191.191 0 0 1 .102-.292l.054.183zm7.505-15.835zm4.112-1.644l-.003-.19c.059-.001.115.026.151.072s.05.106.037.163l-.185-.044zm-4.998 7.539zm4.075-2.302l-.028-.188a.19.19 0 0 1 .218.208l-.189-.02zm-2.851 8.365zm3.669-3.337l-.069-.177a.19.19 0 0 1 .259.159l-.19.019zm-6.848.002a15.958 15.958 0 0 0 8.444 12.659l-.177.337a16.341 16.341 0 0 1-8.646-12.961l.379-.036zM9.131 7.288a16.055 16.055 0 0 0-3.613 11.781l-.379.036a16.437 16.437 0 0 1 3.699-12.06l.293.243zm.946-4.596c-.723.978-1.065 1.943-1.135 2.737-.071.802.137 1.399.466 1.69l-.252.286c-.456-.403-.67-1.144-.594-2.009.077-.873.449-1.903 1.208-2.93l.306.226zm-.668 4.427c.147.13.36.193.637.174s.604-.12.952-.3c.696-.359 1.444-1.016 1.999-1.861l.318.209c-.588.896-1.384 1.599-2.142 1.99-.379.196-.757.318-1.101.342s-.669-.051-.915-.268l.252-.286zm3.587-1.988a9.037 9.037 0 0 0 1.385-3.557c.074-.475.094-.866.095-1.137a4.907 4.907 0 0 0-.007-.312l-.005-.08-.002-.019V.021L14.651 0l.189-.021v.003l.001.007.002.024.006.09c.004.078.009.191.008.335a8.063 8.063 0 0 1-.1 1.194 9.402 9.402 0 0 1-1.443 3.707l-.318-.209zM14.65 0l.033.188h-.001l-.006.001-.026.005a10.34 10.34 0 0 0-1.737.52c-.984.389-2.126 1.017-2.836 1.977l-.306-.226C10.544 1.42 11.765.759 12.773.36a11.518 11.518 0 0 1 1.695-.518l.109-.022a.235.235 0 0 0 .029-.006l.008-.001h.003c.001 0 0 0 0 0l.033.188zM4.39 7.235c.038 1.145.326 2.037.702 2.635.381.607.83.879 1.183.875l.004.381c-.546.006-1.097-.396-1.51-1.053-.418-.665-.72-1.625-.76-2.825l.381-.013zm1.885 3.51a.465.465 0 0 0 .386-.209c.111-.148.198-.377.257-.685.118-.616.11-1.479.028-2.448l.38-.032c.083.976.095 1.882-.033 2.552-.064.334-.166.627-.326.842a.842.842 0 0 1-.687.361l-.004-.381zm.67-3.342c-.148-1.755-.431-2.977-.675-3.757a7.92 7.92 0 0 0-.314-.849 3.335 3.335 0 0 0-.12-.243l-.006-.01-.001-.002.163-.098.163-.098v.001l.001.001.003.004.008.015.03.056c.025.049.061.121.104.218.087.194.204.487.33.891.253.808.54 2.057.691 3.838l-.38.032zm-.952-4.959l.151.116-.001.001-.004.005-.015.02-.057.079a11.477 11.477 0 0 0-.831 1.385c-.453.896-.885 2.061-.847 3.186l-.381.013c-.041-1.22.424-2.454.888-3.37a11.817 11.817 0 0 1 .86-1.434l.061-.084.017-.022.004-.006.001-.002c0-.001 0 0 0 0l.151.115zM1.665 14.106c.337 1.096.846 1.873 1.361 2.34.522.474 1.019.605 1.354.498l.115.363c-.521.166-1.157-.064-1.725-.579-.575-.522-1.116-1.363-1.469-2.51l.364-.112zm2.714 2.838a.486.486 0 0 0 .317-.318c.067-.177.091-.425.066-.74-.05-.63-.284-1.462-.617-2.375l.358-.13c.335.919.585 1.792.639 2.476.027.341.006.654-.09.906a.865.865 0 0 1-.558.546l-.115-.363zm-.233-3.433c-.603-1.653-1.194-2.751-1.632-3.434a7.755 7.755 0 0 0-.523-.729 3.503 3.503 0 0 0-.142-.163l-.035-.037-.008-.008-.002-.001c-.001 0 0 0 0 0l.131-.138.131-.138.001.001.004.004.012.012.043.045c.037.04.09.099.157.18.134.162.323.412.55.765.454.707 1.057 1.831 1.669 3.509l-.358.13zm-2.211-4.51l.177.069-.001.001-.002.006-.009.024-.034.093a12.15 12.15 0 0 0-.431 1.582c-.197.999-.304 2.252.028 3.329l-.364.112c-.359-1.167-.239-2.494-.037-3.515a12.206 12.206 0 0 1 .445-1.636l.036-.099.01-.026.003-.007.001-.002v-.001c0-.001 0 0 0 0L1.934 9zm.274 13.443c.803.889 1.622 1.387 2.308 1.583.694.198 1.216.083 1.485-.188l.271.268c-.407.411-1.099.504-1.86.286-.769-.22-1.647-.764-2.486-1.694l.283-.255zm3.793 1.394a.577.577 0 0 0 .16-.482c-.016-.208-.106-.46-.27-.752-.327-.583-.917-1.269-1.633-1.984l.269-.27c.722.72 1.342 1.436 1.696 2.067.177.315.295.623.318.908a.96.96 0 0 1-.269.78l-.271-.268zm-1.743-3.217c-1.297-1.295-2.337-2.061-3.048-2.503a7.45 7.45 0 0 0-.811-.444 3.482 3.482 0 0 0-.204-.087l-.049-.018-.011-.004-.002-.001.057-.182.057-.182h.001l.002.001.005.002.017.006.061.022c.052.02.128.051.227.096.197.091.485.238.853.467.737.458 1.799 1.243 3.116 2.557l-.269.27zM.19 17.383l.19-.013v.002l.001.007.002.027.01.107a12.994 12.994 0 0 0 .305 1.736c.262 1.06.721 2.32 1.511 3.194l-.283.255C1.073 21.753.595 20.419.328 19.34a13.501 13.501 0 0 1-.314-1.789l-.011-.113-.002-.03L0 17.4v-.003c0-.001 0 0 0 0l.19-.013zm4.955 12.164c1.118.322 2.044.296 2.705.084.666-.214 1.037-.603 1.117-.996l.373.076c-.118.576-.632 1.044-1.374 1.282-.747.24-1.753.258-2.927-.081l.106-.366zm3.821-.912c.072-.352-.151-.689-.733-1.018-.57-.322-1.408-.587-2.366-.807l.085-.371c.966.222 1.848.496 2.468.846.608.343 1.045.81.919 1.426l-.373-.076zM5.867 26.81c-1.735-.398-2.984-.482-3.794-.468a6.632 6.632 0 0 0-.893.068 3.638 3.638 0 0 0-.272.054H.906l-.054-.183-.053-.183c.001 0 0 0 0 0h.003l.005-.001.017-.005a3.649 3.649 0 0 1 .299-.058 7.07 7.07 0 0 1 .944-.072c.844-.015 2.123.073 3.886.477l-.085.371zm-5.013-.529l.156-.109.001.001.004.005.016.022.064.087a13.296 13.296 0 0 0 1.154 1.335c.766.773 1.798 1.607 2.896 1.923l-.106.366c-1.194-.344-2.281-1.235-3.061-2.021a13.566 13.566 0 0 1-1.189-1.376l-.067-.092-.018-.025-.005-.007-.001-.002v-.001c0-.001 0 0 0 0l.156-.109zm9.328-13.217c-.874.609-1.727.863-2.437.855-.705-.008-1.29-.277-1.579-.741l.324-.201c.198.319.638.555 1.259.562.617.007 1.393-.215 2.215-.787l.218.313zm-4.015.114a.958.958 0 0 1-.117-.763c.063-.253.215-.501.419-.737.406-.472 1.056-.947 1.791-1.396l.199.325c-.727.444-1.335.894-1.701 1.319-.183.212-.294.407-.338.581a.576.576 0 0 0 .071.469l-.324.201zm2.092-2.895c1.342-.82 2.385-1.238 3.097-1.451.356-.106.63-.162.816-.19.093-.014.165-.022.214-.026l.057-.004.016-.001h.008c.001 0 0 0 0 0l.003.19.003.19h-.011a2.528 2.528 0 0 0-.232.026 5.698 5.698 0 0 0-.765.179c-.679.203-1.692.607-3.008 1.411l-.199-.325zm4.212-1.481l.185.044v.003l-.002.007-.007.026-.026.098a11.403 11.403 0 0 1-.539 1.509c-.391.888-1.008 1.954-1.9 2.576l-.218-.313c.804-.56 1.386-1.546 1.769-2.416a11.135 11.135 0 0 0 .55-1.571l.001-.006v-.001l.185.044zM9.735 18.815c-.829.759-1.684 1.145-2.425 1.237-.737.091-1.382-.108-1.745-.549l.294-.242c.254.309.751.494 1.404.413.649-.081 1.433-.424 2.215-1.14l.257.281zm-4.17.688a1 1 0 0 1-.225-.774c.031-.272.155-.55.335-.825.358-.55.972-1.138 1.679-1.711l.24.296c-.699.568-1.275 1.125-1.6 1.623-.162.249-.253.47-.275.66a.619.619 0 0 0 .141.489l-.294.242zm1.788-3.31c1.29-1.047 2.323-1.632 3.038-1.955.358-.162.636-.258.826-.314.095-.028.169-.046.22-.057l.059-.012a.157.157 0 0 0 .016-.003l.005-.001h.003c.001 0 0 0 0 0l.028.188.028.188h-.002l-.01.002-.046.009a2.598 2.598 0 0 0-.194.051 5.984 5.984 0 0 0-.777.296c-.683.309-1.688.875-2.955 1.903l-.24-.296zm4.195-2.154l.189.02v.003l-.001.008a.296.296 0 0 0-.003.028l-.014.106a12.111 12.111 0 0 1-.355 1.653c-.287.984-.784 2.184-1.629 2.958l-.257-.281c.766-.701 1.24-1.818 1.521-2.784a11.509 11.509 0 0 0 .343-1.598l.013-.1a.286.286 0 0 1 .003-.025l.001-.006v-.001l.189.02zm-.029 10.405c-.684.979-1.472 1.576-2.206 1.843-.73.265-1.429.208-1.891-.166l.24-.296c.325.263.87.34 1.521.104.646-.235 1.375-.775 2.024-1.703l.312.218zm-4.097 1.677c-.495-.4-.469-1.029-.223-1.672.249-.652.749-1.403 1.348-2.163l.299.236c-.593.752-1.064 1.467-1.291 2.063-.23.604-.185 1.004.107 1.24l-.24.296zm1.125-3.835c1.093-1.386 2.022-2.232 2.682-2.733.33-.25.593-.415.775-.517a3.4 3.4 0 0 1 .211-.11l.057-.026.016-.007.005-.002.002-.001h.001c.001 0 0 0 0 0l.07.177.07.177-.002.001-.01.004-.045.021c-.041.02-.104.051-.188.098a6.458 6.458 0 0 0-.731.488c-.632.48-1.538 1.303-2.613 2.666l-.299-.236zm3.819-3.219l.19-.018v.003l.001.008.003.03.008.113a13.086 13.086 0 0 1-.014 1.798c-.085 1.088-.339 2.447-1.035 3.443l-.312-.218c.636-.911.884-2.186.967-3.255a12.563 12.563 0 0 0 .013-1.744l-.008-.107-.002-.027-.001-.007v-.002c0-.001 0 0 0 0l.19-.018z"/></svg>