<svg width="25" height="22" viewBox="0 0 25 22" fill="none" xmlns="http://www.w3.org/2000/svg"><path d="M0 15.6L5.184 0h3.672l4.848 15.6H10.2l-1.344-4.368H3.432L2.016 15.6H0zm3.912-5.88H8.4L6.264 2.376h-.048L3.912 9.72zm15.35 12.168c-1.808 0-3.16-.36-4.056-1.08-.88-.72-1.32-1.696-1.32-2.928 0-1.344.504-2.328 1.512-2.952a3.076 3.076 0 0 1-.264-1.296c0-.96.352-1.744 1.056-2.352a4.009 4.009 0 0 1-1.368-1.464c-.32-.608-.48-1.32-.48-2.136 0-1.44.464-2.52 1.392-3.24.928-.72 2.112-1.08 3.552-1.08.64 0 1.248.088 1.824.264l3.24.024v1.416l-1.152.072c.448.672.672 1.52.672 2.544 0 1.424-.424 2.512-1.272 3.264-.832.752-1.96 1.128-3.384 1.128a7.415 7.415 0 0 1-1.656-.192c-.304.24-.456.536-.456.888 0 .32.184.568.552.744.368.16 1 .24 1.896.24 1.76 0 3.064.32 3.912.96.848.64 1.272 1.584 1.272 2.832 0 1.408-.464 2.48-1.392 3.216-.912.752-2.272 1.128-4.08 1.128zm-.12-11.28c.544 0 .952-.232 1.224-.696.272-.464.408-1.224.408-2.28 0-1.056-.136-1.776-.408-2.16-.272-.384-.688-.576-1.248-.576s-.984.2-1.272.6c-.288.384-.432 1.112-.432 2.184 0 1.04.144 1.792.432 2.256.304.448.736.672 1.296.672zm.12 9.648c.944 0 1.648-.168 2.112-.504.464-.336.696-.824.696-1.464s-.256-1.104-.768-1.392c-.496-.288-1.248-.432-2.256-.432-.944 0-1.72-.128-2.328-.384-.4.432-.6 1.008-.6 1.728 0 .784.256 1.384.768 1.8.528.432 1.32.648 2.376.648z" fill="#000"/></svg>