<svg width="26" height="16" viewBox="0 0 26 16" fill="none" xmlns="http://www.w3.org/2000/svg"><path d="M0 15.6L5.184 0h3.672l4.848 15.6H10.2l-1.344-4.368H3.432L2.016 15.6H0zm3.912-5.88H8.4L6.264 2.376h-.048L3.912 9.72zm14.774 6.144c-1.232 0-2.16-.328-2.784-.984-.608-.672-.912-1.712-.912-3.12V3.6h3.192v7.488c0 1.056.128 1.784.384 2.184.256.4.672.6 1.248.6.384 0 .728-.064 1.032-.192.304-.144.544-.288.72-.432.176-.144.288-.24.336-.288V3.6h3.192v12h-2.568l-.456-1.056h-.048c0 .032-.128.168-.384.408-.256.224-.632.432-1.128.624-.496.192-1.104.288-1.824.288z" fill="#000"/></svg>