<svg width="24" height="22" viewBox="0 0 24 22" fill="none" xmlns="http://www.w3.org/2000/svg"><path fill-rule="evenodd" clip-rule="evenodd" d="M11.522 8.265a1.47 1.47 0 0 1-1.482-1.46V1.459A1.47 1.47 0 0 1 11.522 0a1.47 1.47 0 0 1 1.482 1.458v5.348a1.47 1.47 0 0 1-1.482 1.459zM8.06 10.739a1.488 1.488 0 0 1-1.868.936l-5.168-1.652a1.454 1.454 0 0 1-.951-1.838 1.486 1.486 0 0 1 1.867-.936L7.108 8.9a1.454 1.454 0 0 1 .952 1.838zm6.924.001a1.487 1.487 0 0 0 1.867.936l5.168-1.653a1.453 1.453 0 0 0 .951-1.838 1.487 1.487 0 0 0-1.867-.936l-5.168 1.653a1.454 1.454 0 0 0-.951 1.838zM4.444 21.436a1.444 1.444 0 0 1-.329-2.037l3.193-4.327a1.496 1.496 0 0 1 2.069-.323c.663.473.81 1.385.329 2.036l-3.193 4.328a1.498 1.498 0 0 1-2.07.323zm14.156 0c.663-.473.81-1.385.328-2.037l-3.192-4.327a1.497 1.497 0 0 0-2.07-.323 1.443 1.443 0 0 0-.328 2.036l3.193 4.328c.48.651 1.408.796 2.07.323z" fill="#000"/></svg>