<svg width="20" height="10" viewBox="0 0 20 10" fill="none" xmlns="http://www.w3.org/2000/svg"><path fill-rule="evenodd" clip-rule="evenodd" d="M15.62 9.762h1.952V5.857h1.952V3.905h-9.82l-.225-.654A4.886 4.886 0 0 0 4.88 0 4.883 4.883 0 0 0 0 4.881a4.883 4.883 0 0 0 4.881 4.881 4.886 4.886 0 0 0 4.598-3.25l.224-.655h3.06v3.905h1.5V5.857h1.356v3.905zM4.88 7.81a2.937 2.937 0 0 1-2.927-2.93A2.937 2.937 0 0 1 4.88 1.953 2.937 2.937 0 0 1 7.809 4.88a2.937 2.937 0 0 1-2.928 2.93zm-.974-2.93a.98.98 0 0 1 .976-.976.98.98 0 0 1 .976.976.98.98 0 0 1-.976.976.98.98 0 0 1-.976-.976z" fill="#000"/></svg>