<svg width="17" height="24" viewBox="0 0 17 24" fill="none" xmlns="http://www.w3.org/2000/svg"><path d="M8.4 23l-.37.335.37.411.371-.41-.37-.336zm0-17.05v.5-.5zm2.382 1.375l.433-.25-.433.25zM8.4.5A8.194 8.194 0 0 0 .2 8.7h1c0-3.98 3.22-7.2 7.2-7.2v-1zM.2 8.7c0 1.545.512 3.235 1.247 4.875.738 1.647 1.717 3.28 2.689 4.72a51.638 51.638 0 0 0 3.87 5.013l.017.02.004.005.002.002L8.4 23l.371-.335v-.001l-.004-.004-.016-.018a15.542 15.542 0 0 1-.303-.346 50.68 50.68 0 0 1-3.483-4.56c-.953-1.413-1.9-2.994-2.605-4.57C1.65 11.584 1.2 10.043 1.2 8.7h-1zM8.4 23l.371.335.002-.002.005-.005.017-.02a22.783 22.783 0 0 0 .315-.36 51.628 51.628 0 0 0 3.555-4.653c.972-1.44 1.95-3.073 2.688-4.72.735-1.64 1.247-3.33 1.247-4.875h-1c0 1.343-.45 2.884-1.16 4.466-.705 1.576-1.651 3.157-2.604 4.57a50.68 50.68 0 0 1-3.787 4.906l-.015.018a.621.621 0 0 0-.005.005L8.4 23zm8.2-14.3c0-4.533-3.667-8.2-8.2-8.2v1c3.981 0 7.2 3.22 7.2 7.2h1zM8.4 5.45A3.25 3.25 0 0 0 5.15 8.7h1A2.25 2.25 0 0 1 8.4 6.45v-1zM5.15 8.7a3.25 3.25 0 0 0 3.25 3.25v-1A2.25 2.25 0 0 1 6.15 8.7h-1zm3.25 3.25a3.25 3.25 0 0 0 2.815-1.625l-.866-.5A2.25 2.25 0 0 1 8.4 10.95v1zm2.815-1.625a3.25 3.25 0 0 0 0-3.25l-.866.5a2.25 2.25 0 0 1 0 2.25l.866.5zm0-3.25A3.25 3.25 0 0 0 8.4 5.45v1a2.25 2.25 0 0 1 1.949 1.125l.866-.5z" fill="#B3B8D5"/></svg>