<svg width="23" height="19" viewBox="0 0 23 19" fill="none" xmlns="http://www.w3.org/2000/svg"><path d="M0 2.496h4.776c1.776 0 3.152.448 4.128 1.344.992.88 1.488 2.192 1.488 3.936 0 1.248-.272 2.28-.816 3.096-.544.816-1.24 1.416-2.088 1.8a6.565 6.565 0 0 1-2.64.552H3.312v4.872H0v-15.6zm4.464 9.192c.8 0 1.392-.272 1.776-.816.384-.56.576-1.544.576-2.952 0-1.424-.192-2.424-.576-3-.384-.576-.976-.864-1.776-.864H3.312v7.632h1.152zM16.16 18.36c-.991 0-1.871-.248-2.64-.744-.751-.496-1.335-1.192-1.751-2.088-.416-.912-.624-1.968-.624-3.168 0-1.296.2-2.432.6-3.408.4-.992.968-1.752 1.704-2.28.736-.544 1.592-.816 2.568-.816.624 0 1.144.072 1.56.216.416.128.728.272.936.432.208.144.312.232.312.264h.072V.192L22.089 0v18.096h-2.664l-.36-1.08h-.024c0 .048-.096.184-.288.408-.192.224-.504.44-.936.648-.416.192-.968.288-1.656.288zm.72-1.872c.4 0 .745-.08 1.033-.24.304-.16.544-.336.72-.528.176-.192.264-.304.264-.336V8.472c-.032-.048-.128-.128-.288-.24-.144-.128-.36-.248-.648-.36A2.234 2.234 0 0 0 17 7.68c-.864 0-1.488.344-1.872 1.032-.368.688-.552 1.872-.552 3.552 0 1.12.08 1.984.24 2.592.176.608.424 1.032.744 1.272.336.24.776.36 1.32.36z" fill="#000"/></svg>