<svg width="19" height="17" viewBox="0 0 19 17" fill="none" xmlns="http://www.w3.org/2000/svg"><path d="M0 .384h4.776c1.776 0 3.152.448 4.128 1.344.992.88 1.488 2.192 1.488 3.936 0 1.248-.272 2.28-.816 3.096-.544.816-1.24 1.416-2.088 1.8a6.565 6.565 0 0 1-2.64.552H3.312v4.872H0V.384zm4.464 9.192c.8 0 1.392-.272 1.776-.816.384-.56.576-1.544.576-2.952 0-1.424-.192-2.424-.576-3-.384-.576-.976-.864-1.776-.864H3.312v7.632h1.152zm11.193 6.672c-1.136 0-1.976-.28-2.52-.84-.544-.56-.816-1.504-.816-2.832V5.832h-1.152v-1.44l1.176-.336L13.88 0h1.632v3.984h2.64v1.848h-2.64v5.928c0 .752.032 1.328.096 1.728.08.384.2.656.36.816.16.144.384.216.672.216.32 0 .608-.032.864-.096s.384-.104.384-.12l.192 1.368c0 .016-.088.072-.264.168-.176.096-.448.184-.816.264-.352.096-.8.144-1.344.144z" fill="#000"/></svg>