<svg width="25" height="22" viewBox="0 0 25 22" fill="none" xmlns="http://www.w3.org/2000/svg">
<path d="M0 15.6L5.184 0H8.856L13.704 15.6H10.2L8.856 11.232H3.432L2.016 15.6H0ZM3.912 9.72H8.4L6.264 2.376H6.216L3.912 9.72Z" fill="black"/>
<path d="M19.2616 21.888C17.4536 21.888 16.1016 21.528 15.2056 20.808C14.3256 20.088 13.8856 19.112 13.8856 17.88C13.8856 16.536 14.3896 15.552 15.3976 14.928C15.2216 14.544 15.1336 14.112 15.1336 13.632C15.1336 12.672 15.4856 11.888 16.1896 11.28C15.6136 10.912 15.1576 10.424 14.8216 9.816C14.5016 9.208 14.3416 8.496 14.3416 7.68C14.3416 6.24 14.8056 5.16 15.7336 4.44C16.6616 3.72 17.8456 3.36 19.2856 3.36C19.9256 3.36 20.5336 3.448 21.1096 3.624L24.3496 3.648V5.064L23.1976 5.136C23.6456 5.808 23.8696 6.656 23.8696 7.68C23.8696 9.104 23.4456 10.192 22.5976 10.944C21.7656 11.696 20.6376 12.072 19.2136 12.072C18.6696 12.072 18.1176 12.008 17.5576 11.88C17.2536 12.12 17.1016 12.416 17.1016 12.768C17.1016 13.088 17.2856 13.336 17.6536 13.512C18.0216 13.672 18.6536 13.752 19.5496 13.752C21.3096 13.752 22.6136 14.072 23.4616 14.712C24.3096 15.352 24.7336 16.296 24.7336 17.544C24.7336 18.952 24.2696 20.024 23.3416 20.76C22.4296 21.512 21.0696 21.888 19.2616 21.888ZM19.1416 10.608C19.6856 10.608 20.0936 10.376 20.3656 9.912C20.6376 9.448 20.7736 8.688 20.7736 7.632C20.7736 6.576 20.6376 5.856 20.3656 5.472C20.0936 5.088 19.6776 4.896 19.1176 4.896C18.5576 4.896 18.1336 5.096 17.8456 5.496C17.5576 5.88 17.4136 6.608 17.4136 7.68C17.4136 8.72 17.5576 9.472 17.8456 9.936C18.1496 10.384 18.5816 10.608 19.1416 10.608ZM19.2616 20.256C20.2056 20.256 20.9096 20.088 21.3736 19.752C21.8376 19.416 22.0696 18.928 22.0696 18.288C22.0696 17.648 21.8136 17.184 21.3016 16.896C20.8056 16.608 20.0536 16.464 19.0456 16.464C18.1016 16.464 17.3256 16.336 16.7176 16.08C16.3176 16.512 16.1176 17.088 16.1176 17.808C16.1176 18.592 16.3736 19.192 16.8856 19.608C17.4136 20.04 18.2056 20.256 19.2616 20.256Z" fill="black"/>
</svg>
