<svg width="26" height="16" viewBox="0 0 26 16" fill="none" xmlns="http://www.w3.org/2000/svg">
<path d="M0 15.6L5.184 0H8.856L13.704 15.6H10.2L8.856 11.232H3.432L2.016 15.6H0ZM3.912 9.72H8.4L6.264 2.376H6.216L3.912 9.72Z" fill="black"/>
<path d="M18.6856 15.864C17.4536 15.864 16.5256 15.536 15.9016 14.88C15.2936 14.208 14.9896 13.168 14.9896 11.76V3.6H18.1816V11.088C18.1816 12.144 18.3096 12.872 18.5656 13.272C18.8216 13.672 19.2376 13.872 19.8136 13.872C20.1976 13.872 20.5416 13.808 20.8456 13.68C21.1496 13.536 21.3896 13.392 21.5656 13.248C21.7416 13.104 21.8536 13.008 21.9016 12.96V3.6H25.0936V15.6H22.5256L22.0696 14.544H22.0216C22.0216 14.576 21.8936 14.712 21.6376 14.952C21.3816 15.176 21.0056 15.384 20.5096 15.576C20.0136 15.768 19.4056 15.864 18.6856 15.864Z" fill="black"/>
</svg>
