<svg width="13" height="24" viewBox="0 0 13 24" fill="none" xmlns="http://www.w3.org/2000/svg">
<path fill-rule="evenodd" clip-rule="evenodd" d="M12.4869 0.00499344L9.37464 0C5.87816 0 3.61858 2.31826 3.61858 5.90637V8.6296H0.489368C0.218967 8.6296 0 8.84882 0 9.11922V13.0649C0 13.3353 0.219217 13.5542 0.489368 13.5542H3.61858V23.5104C3.61858 23.7808 3.83754 23.9997 4.10794 23.9997H8.19067C8.46107 23.9997 8.68004 23.7805 8.68004 23.5104V13.5542H12.3388C12.6092 13.5542 12.8282 13.3353 12.8282 13.0649L12.8297 9.11922C12.8297 8.98939 12.778 8.86505 12.6864 8.77317C12.5947 8.68129 12.4699 8.6296 12.3401 8.6296H8.68004V6.32108C8.68004 5.21152 8.94445 4.64825 10.3898 4.64825L12.4864 4.6475C12.7565 4.6475 12.9755 4.42828 12.9755 4.15813V0.494362C12.9755 0.22446 12.7568 0.00549316 12.4869 0.00499344Z" fill="black"/>
</svg>
