<svg width="24" height="22" viewBox="0 0 24 22" fill="none" xmlns="http://www.w3.org/2000/svg">
<path fill-rule="evenodd" clip-rule="evenodd" d="M11.5218 8.26456C10.7029 8.26456 10.0397 7.6115 10.0397 6.80595V1.4582C10.0397 0.653046 10.7029 0 11.5218 0C12.3404 0 13.0036 0.653046 13.0036 1.4582V6.80595C13.0036 7.6115 12.3404 8.26456 11.5218 8.26456Z" fill="black"/>
<path fill-rule="evenodd" clip-rule="evenodd" d="M8.05979 10.7389C7.80652 11.5049 6.97061 11.9242 6.19228 11.6754L1.02425 10.0225C0.245917 9.77373 -0.179669 8.95105 0.0727184 8.18466C0.32553 7.41823 1.16188 6.99944 1.94022 7.24865L7.10783 8.90103C7.88701 9.14986 8.31259 9.97292 8.05979 10.7389Z" fill="black"/>
<path fill-rule="evenodd" clip-rule="evenodd" d="M14.984 10.7397C15.2372 11.5057 16.0727 11.925 16.8511 11.6758L22.0191 10.0233C22.7974 9.77454 23.2234 8.95144 22.9702 8.18547C22.7178 7.41946 21.8819 7.0002 21.1031 7.24904L15.9351 8.90183C15.1568 9.15063 14.7312 9.97373 14.984 10.7397Z" fill="black"/>
<path fill-rule="evenodd" clip-rule="evenodd" d="M4.44359 21.4362C3.78126 20.9632 3.6339 20.051 4.11496 19.3988L7.3079 15.0717C7.78855 14.4199 8.71551 14.2752 9.37698 14.7487C10.0397 15.2221 10.1871 16.1339 9.70558 16.7853L6.51305 21.1133C6.03245 21.7642 5.10502 21.9092 4.44359 21.4362Z" fill="black"/>
<path fill-rule="evenodd" clip-rule="evenodd" d="M18.6003 21.4362C19.2626 20.9632 19.4095 20.051 18.9285 19.3988L15.736 15.0717C15.2553 14.4199 14.3283 14.2752 13.6661 14.7487C13.0042 15.2221 12.8568 16.1339 13.3379 16.7853L16.5308 21.1133C17.0114 21.7642 17.9389 21.9092 18.6003 21.4362Z" fill="black"/>
</svg>
