<svg width="20" height="10" viewBox="0 0 20 10" fill="none" xmlns="http://www.w3.org/2000/svg">
<path fill-rule="evenodd" clip-rule="evenodd" d="M15.6192 9.76202H17.5716V5.85721H19.524V3.90481H9.70345L9.47892 3.25075C8.79558 1.30811 6.9408 0 4.88101 0C2.18669 0 0 2.18669 0 4.88101C0 7.57533 2.18669 9.76202 4.88101 9.76202C6.9408 9.76202 8.79558 8.45391 9.47892 6.51127L9.70345 5.85721H12.7622V9.76202H14.2622V5.85721H15.6192V9.76202ZM4.88053 7.80985C3.2698 7.80985 1.95193 6.49198 1.95193 4.88125C1.95193 3.27052 3.2698 1.95264 4.88053 1.95264C6.49127 1.95264 7.80914 3.27052 7.80914 4.88125C7.80914 6.49198 6.49127 7.80985 4.88053 7.80985ZM3.90457 4.88113C3.90457 4.34422 4.34386 3.90493 4.88077 3.90493C5.41768 3.90493 5.85697 4.34422 5.85697 4.88113C5.85697 5.41804 5.41768 5.85733 4.88077 5.85733C4.34386 5.85733 3.90457 5.41804 3.90457 4.88113Z" fill="black"/>
</svg>
