<svg width="17" height="24" viewBox="0 0 17 24" fill="none" xmlns="http://www.w3.org/2000/svg">
<path d="M8.40019 23L8.02914 23.3351L8.40019 23.746L8.77125 23.3351L8.40019 23ZM8.40019 5.95L8.40019 6.45H8.40019L8.40019 5.95ZM10.7818 7.325L11.2148 7.075L11.2148 7.075L10.7818 7.325ZM8.40019 0.5C3.86705 0.5 0.200195 4.16686 0.200195 8.7H1.2002C1.2002 4.71914 4.41934 1.5 8.40019 1.5V0.5ZM0.200195 8.7C0.200195 10.2449 0.712309 11.9352 1.44702 13.5751C2.18466 15.2217 3.16377 16.8547 4.13571 18.2953C5.10861 19.7373 6.08052 20.9954 6.80884 21.8928C7.17322 22.3418 7.47718 22.7011 7.69053 22.9488C7.79722 23.0726 7.88129 23.1686 7.93897 23.2339C7.96782 23.2665 7.99007 23.2915 8.00525 23.3085C8.01284 23.317 8.01867 23.3235 8.02267 23.328C8.02467 23.3302 8.02622 23.3319 8.0273 23.3331C8.02784 23.3337 8.02826 23.3342 8.02857 23.3345C8.02872 23.3347 8.02887 23.3348 8.02894 23.3349C8.02906 23.335 8.02914 23.3351 8.40019 23C8.77125 22.6649 8.77127 22.6649 8.77127 22.6649C8.77123 22.6648 8.7712 22.6648 8.77112 22.6647C8.77096 22.6645 8.77068 22.6642 8.77029 22.6638C8.7695 22.6629 8.76826 22.6615 8.76656 22.6596C8.76316 22.6559 8.75794 22.65 8.75096 22.6422C8.73701 22.6266 8.71602 22.603 8.68847 22.5718C8.63336 22.5095 8.552 22.4166 8.44814 22.2961C8.2404 22.0549 7.94279 21.7031 7.5853 21.2627C6.86987 20.3811 5.91678 19.1471 4.96468 17.736C4.01162 16.3234 3.06573 14.7424 2.35962 13.1663C1.65058 11.5836 1.2002 10.0426 1.2002 8.7H0.200195ZM8.40019 23C8.77125 23.3351 8.77133 23.335 8.77144 23.3349C8.77152 23.3348 8.77166 23.3347 8.77182 23.3345C8.77213 23.3342 8.77255 23.3337 8.77309 23.3331C8.77417 23.3319 8.77572 23.3302 8.77772 23.328C8.78172 23.3235 8.78755 23.317 8.79514 23.3085C8.81032 23.2915 8.83257 23.2665 8.86142 23.2339C8.9191 23.1686 9.00317 23.0726 9.10986 22.9488C9.32321 22.7011 9.62717 22.3418 9.99155 21.8928C10.7199 20.9954 11.6918 19.7373 12.6647 18.2953C13.6366 16.8547 14.6157 15.2217 15.3534 13.5751C16.0881 11.9352 16.6002 10.2449 16.6002 8.7H15.6002C15.6002 10.0426 15.1498 11.5836 14.4408 13.1663C13.7347 14.7424 12.7888 16.3234 11.8357 17.736C10.8836 19.1471 9.93052 20.3811 9.21509 21.2627C8.8576 21.7031 8.55999 22.0549 8.35225 22.2961C8.24839 22.4166 8.16703 22.5095 8.11192 22.5718C8.08437 22.603 8.06338 22.6266 8.04943 22.6422C8.04245 22.65 8.03723 22.6559 8.03383 22.6596C8.03213 22.6615 8.03089 22.6629 8.0301 22.6638C8.02971 22.6642 8.02943 22.6645 8.02927 22.6647C8.02919 22.6648 8.02916 22.6648 8.02912 22.6649C8.02912 22.6649 8.02914 22.6649 8.40019 23ZM16.6002 8.7C16.6002 4.16686 12.9333 0.5 8.40019 0.5V1.5C12.3811 1.5 15.6002 4.71914 15.6002 8.7H16.6002ZM8.40019 5.45C6.60527 5.45 5.15019 6.90508 5.15019 8.7H6.15019C6.15019 7.45736 7.15755 6.45 8.40019 6.45V5.45ZM5.15019 8.7C5.15019 10.4949 6.60527 11.95 8.40019 11.95V10.95C7.15755 10.95 6.15019 9.94264 6.15019 8.7H5.15019ZM8.40019 11.95C9.56131 11.95 10.6342 11.3306 11.2148 10.325L10.3488 9.825C9.94683 10.5212 9.20404 10.95 8.40019 10.95V11.95ZM11.2148 10.325C11.7953 9.31945 11.7953 8.08055 11.2148 7.075L10.3488 7.575C10.7507 8.27115 10.7507 9.12885 10.3488 9.825L11.2148 10.325ZM11.2148 7.075C10.6342 6.06945 9.56131 5.45 8.40019 5.45L8.40019 6.45C9.20404 6.45 9.94683 6.87885 10.3488 7.575L11.2148 7.075Z" fill="#B3B8D5"/>
</svg>
