<svg width="23" height="19" viewBox="0 0 23 19" fill="none" xmlns="http://www.w3.org/2000/svg">
<path d="M0 2.496H4.776C6.552 2.496 7.928 2.944 8.904 3.84C9.896 4.72 10.392 6.032 10.392 7.776C10.392 9.024 10.12 10.056 9.576 10.872C9.032 11.688 8.336 12.288 7.488 12.672C6.64 13.04 5.76 13.224 4.848 13.224H3.312V18.096H0V2.496ZM4.464 11.688C5.264 11.688 5.856 11.416 6.24 10.872C6.624 10.312 6.816 9.328 6.816 7.92C6.816 6.496 6.624 5.496 6.24 4.92C5.856 4.344 5.264 4.056 4.464 4.056H3.312V11.688H4.464Z" fill="black"/>
<path d="M16.1609 18.36C15.1689 18.36 14.2889 18.112 13.5209 17.616C12.7689 17.12 12.1849 16.424 11.7689 15.528C11.3529 14.616 11.1449 13.56 11.1449 12.36C11.1449 11.064 11.3449 9.928 11.7449 8.952C12.1449 7.96 12.7129 7.2 13.4489 6.672C14.1849 6.128 15.0409 5.856 16.0169 5.856C16.6409 5.856 17.1609 5.928 17.5769 6.072C17.9929 6.2 18.3049 6.344 18.5129 6.504C18.7209 6.648 18.8249 6.736 18.8249 6.768H18.8969V0.191999L22.0889 0V18.096H19.4249L19.0649 17.016H19.0409C19.0409 17.064 18.9449 17.2 18.7529 17.424C18.5609 17.648 18.2489 17.864 17.8169 18.072C17.4009 18.264 16.8489 18.36 16.1609 18.36ZM16.8809 16.488C17.2809 16.488 17.6249 16.408 17.9129 16.248C18.2169 16.088 18.4569 15.912 18.6329 15.72C18.8089 15.528 18.8969 15.416 18.8969 15.384V8.472C18.8649 8.424 18.7689 8.344 18.6089 8.232C18.4649 8.104 18.2489 7.984 17.9609 7.872C17.6889 7.744 17.3689 7.68 17.0009 7.68C16.1369 7.68 15.5129 8.024 15.1289 8.712C14.7609 9.4 14.5769 10.584 14.5769 12.264C14.5769 13.384 14.6569 14.248 14.8169 14.856C14.9929 15.464 15.2409 15.888 15.5609 16.128C15.8969 16.368 16.3369 16.488 16.8809 16.488Z" fill="black"/>
</svg>
