<?xml version="1.0" encoding="utf-8"?>
<!-- Generator: Adobe Illustrator 22.0.1, SVG Export Plug-In . SVG Version: 6.00 Build 0)  -->
<svg version="1.1" id="Слой_1" xmlns="http://www.w3.org/2000/svg" xmlns:xlink="http://www.w3.org/1999/xlink" x="0px" y="0px"
	 viewBox="0 0 18 18" style="enable-background:new 0 0 18 18;" xml:space="preserve">
<path d="M17,12.5c-1.2,0-2.5-0.2-3.6-0.6c-0.1,0-0.2,0-0.3,0c-0.3,0-0.5,0.1-0.7,0.3l-2.2,2.2c-2.8-1.5-5.2-3.8-6.6-6.6l2.2-2.2
	c0.3-0.3,0.4-0.7,0.3-1C5.7,3.5,5.5,2.3,5.5,1c0-0.5-0.5-1-1-1H1C0.5,0,0,0.5,0,1c0,9.4,7.6,17,17,17c0.5,0,1-0.5,1-1v-3.5
	C18,13,17.5,12.5,17,12.5z"/>
</svg>
