<svg width="19" height="17" viewBox="0 0 19 17" fill="none" xmlns="http://www.w3.org/2000/svg">
<path d="M0 0.383999H4.776C6.552 0.383999 7.928 0.831999 8.904 1.728C9.896 2.608 10.392 3.92 10.392 5.664C10.392 6.912 10.12 7.944 9.576 8.76C9.032 9.576 8.336 10.176 7.488 10.56C6.64 10.928 5.76 11.112 4.848 11.112H3.312V15.984H0V0.383999ZM4.464 9.576C5.264 9.576 5.856 9.304 6.24 8.76C6.624 8.2 6.816 7.216 6.816 5.808C6.816 4.384 6.624 3.384 6.24 2.808C5.856 2.232 5.264 1.944 4.464 1.944H3.312V9.576H4.464Z" fill="black"/>
<path d="M15.6569 16.248C14.5209 16.248 13.6809 15.968 13.1369 15.408C12.5929 14.848 12.3209 13.904 12.3209 12.576V5.832H11.1689V4.392L12.3449 4.056L13.8809 0H15.5129V3.984H18.1529V5.832H15.5129V11.76C15.5129 12.512 15.5449 13.088 15.6089 13.488C15.6889 13.872 15.8089 14.144 15.9689 14.304C16.1289 14.448 16.3529 14.52 16.6409 14.52C16.9609 14.52 17.2489 14.488 17.5049 14.424C17.7609 14.36 17.8889 14.32 17.8889 14.304L18.0809 15.672C18.0809 15.688 17.9929 15.744 17.8169 15.84C17.6409 15.936 17.3689 16.024 17.0009 16.104C16.6489 16.2 16.2009 16.248 15.6569 16.248Z" fill="black"/>
</svg>
