<?xml version="1.0" encoding="utf-8"?>
<!-- Generator: Adobe Illustrator 22.0.1, SVG Export Plug-In . SVG Version: 6.00 Build 0)  -->
<svg version="1.1" id="Слой_1" xmlns="http://www.w3.org/2000/svg" xmlns:xlink="http://www.w3.org/1999/xlink" x="0px" y="0px"
	 viewBox="0 0 995 994.9" style="enable-background:new 0 0 995 994.9;" xml:space="preserve">
<title></title>
<g id="icomoon-ignore">
</g>
<path d="M711.1,625.8h-44.9l0,0l-15.9-15.4c55.8-64.9,89.3-149,89.3-240.6C739.6,165.5,574,0,369.8,0S0,165.5,0,369.8
	s165.5,369.8,369.8,369.8c91.6,0,175.8-33.6,240.6-89.3l15.4,15.9v44.9L910.2,995l84.8-84.8L711.1,625.8z M369.8,625.8
	c-141.7,0-256-114.3-256-256s114.3-256,256-256s256,114.3,256,256S511.4,625.8,369.8,625.8z"/>
</svg>
