<svg width="20" height="20" viewBox="0 0 20 20" fill="none" xmlns="http://www.w3.org/2000/svg">
<path d="M14.3323 0.985165C12.4926 1.24629 11.0682 2.96142 11.0326 5.05045C13.5786 5.5193 15.5015 7.2285 15.5015 10.2789C15.5015 13.2225 13.0564 15.6024 10 15.6024C6.96145 15.6083 4.49852 12.9377 4.49852 9.47775C4.49852 4.70623 8.7359 0.747775 14.0949 0.872405C12.8427 0.31454 11.4599 0 10 0C4.48071 0 0 4.47478 0 10C0 15.5252 4.48071 20 10 20C15.5193 20 20 15.5252 20 10C20 6.02965 17.6854 2.59941 14.3323 0.985165Z" fill="black"/>
</svg>
